<svg xmlns="http://www.w3.org/2000/svg" xmlns:xlink="http://www.w3.org/1999/xlink" zoomAndPan="magnify" preserveAspectRatio="xMidYMid meet" version="1.0" viewBox="114.65 112.5 145.7 150"><defs><clipPath id="b9482f467e"><path d="M 114.65625 112.5 L 260.15625 112.5 L 260.15625 262.5 L 114.65625 262.5 Z M 114.65625 112.5 " clip-rule="nonzero"/></clipPath></defs><path fill="#ea7b1f" d="M 145.800781 205.203125 C 144.996094 204.894531 144.09375 205.300781 143.789062 206.113281 L 140.574219 214.644531 L 137.359375 206.113281 C 137.054688 205.308594 136.152344 204.894531 135.347656 205.203125 C 134.539062 205.507812 134.132812 206.40625 134.433594 207.214844 L 139.109375 219.621094 C 139.34375 220.226562 139.921875 220.632812 140.574219 220.632812 C 141.222656 220.632812 141.804688 220.234375 142.035156 219.621094 L 146.714844 207.214844 C 147.019531 206.40625 146.609375 205.507812 145.800781 205.203125 Z M 145.800781 205.203125 " fill-opacity="1" fill-rule="nonzero"/><path fill="#ea7b1f" d="M 171.011719 206.113281 C 170.78125 205.507812 170.199219 205.101562 169.546875 205.101562 C 168.898438 205.101562 168.316406 205.5 168.085938 206.113281 L 163.410156 218.519531 C 163.101562 219.324219 163.515625 220.226562 164.320312 220.53125 C 165.128906 220.839844 166.027344 220.433594 166.335938 219.621094 L 167.671875 216.070312 L 171.425781 216.070312 L 172.761719 219.621094 C 173 220.246094 173.59375 220.632812 174.226562 220.632812 C 174.40625 220.632812 174.59375 220.601562 174.777344 220.53125 C 175.582031 220.226562 175.988281 219.324219 175.6875 218.519531 Z M 168.855469 212.949219 L 169.546875 211.097656 L 170.242188 212.949219 L 168.847656 212.949219 Z M 168.855469 212.949219 " fill-opacity="1" fill-rule="nonzero"/><path fill="#ea7b1f" d="M 149.675781 205.101562 C 148.816406 205.101562 148.113281 205.800781 148.113281 206.664062 L 148.113281 219.070312 C 148.113281 219.933594 148.816406 220.632812 149.675781 220.632812 C 150.539062 220.632812 151.242188 219.933594 151.242188 219.070312 L 151.242188 206.664062 C 151.242188 205.800781 150.539062 205.101562 149.675781 205.101562 Z M 149.675781 205.101562 " fill-opacity="1" fill-rule="nonzero"/><path fill="#ea7b1f" d="M 158.742188 211.304688 L 157.230469 211.304688 C 156.367188 211.304688 155.667969 210.617188 155.667969 209.765625 C 155.667969 208.914062 156.367188 208.226562 157.230469 208.226562 L 160.121094 208.226562 C 160.980469 208.226562 161.683594 207.527344 161.683594 206.664062 C 161.683594 205.800781 160.980469 205.101562 160.121094 205.101562 L 157.230469 205.101562 C 154.640625 205.101562 152.542969 207.195312 152.542969 209.765625 C 152.542969 212.335938 154.640625 214.429688 157.230469 214.429688 L 158.742188 214.429688 C 159.605469 214.429688 160.308594 215.117188 160.308594 215.96875 C 160.308594 216.820312 159.605469 217.507812 158.742188 217.507812 L 154.105469 217.507812 C 153.242188 217.507812 152.542969 218.207031 152.542969 219.070312 C 152.542969 219.933594 153.242188 220.632812 154.105469 220.632812 L 158.742188 220.632812 C 161.332031 220.632812 163.433594 218.539062 163.433594 215.96875 C 163.433594 213.398438 161.332031 211.304688 158.742188 211.304688 Z M 158.742188 211.304688 " fill-opacity="1" fill-rule="nonzero"/><path fill="#ea7b1f" d="M 173.105469 157.148438 C 169.230469 151.304688 162.589844 147.4375 155.066406 147.4375 C 147.546875 147.4375 140.90625 151.304688 137.027344 157.144531 C 136.964844 157.21875 136.914062 157.300781 136.871094 157.386719 C 134.695312 160.761719 133.425781 164.773438 133.425781 169.074219 C 133.425781 181.003906 143.132812 190.714844 155.066406 190.714844 C 162.59375 190.714844 169.242188 186.84375 173.117188 180.992188 C 173.164062 180.933594 173.199219 180.871094 173.238281 180.808594 C 175.433594 177.425781 176.707031 173.398438 176.707031 169.074219 C 176.707031 164.746094 175.445312 160.769531 173.273438 157.398438 C 173.230469 157.3125 173.175781 157.222656 173.113281 157.148438 Z M 171.238281 178.066406 C 169.316406 177.25 167.386719 176.5625 165.472656 176.03125 C 166.027344 174.332031 166.414062 172.523438 166.558594 170.644531 L 173.507812 170.644531 C 173.28125 173.320312 172.488281 175.832031 171.242188 178.066406 Z M 136.621094 170.644531 L 143.5625 170.644531 C 143.707031 172.523438 144.101562 174.339844 144.648438 176.039062 C 142.738281 176.570312 140.8125 177.25 138.886719 178.066406 C 137.640625 175.832031 136.839844 173.3125 136.617188 170.636719 Z M 138.886719 160.089844 C 140.804688 160.902344 142.730469 161.582031 144.648438 162.121094 C 144.09375 163.828125 143.707031 165.632812 143.5625 167.515625 L 136.621094 167.515625 C 136.847656 164.839844 137.640625 162.320312 138.890625 160.089844 Z M 153.496094 167.515625 L 146.695312 167.515625 C 146.84375 165.898438 147.214844 164.332031 147.71875 162.851562 C 149.660156 163.238281 151.589844 163.484375 153.496094 163.570312 Z M 153.496094 170.644531 L 153.496094 174.589844 C 151.597656 174.675781 149.664062 174.914062 147.71875 175.308594 C 147.214844 173.820312 146.84375 172.257812 146.695312 170.644531 Z M 156.625 170.644531 L 163.425781 170.644531 C 163.277344 172.257812 162.90625 173.820312 162.402344 175.300781 C 160.457031 174.914062 158.519531 174.667969 156.625 174.589844 Z M 156.625 167.515625 L 156.625 163.570312 C 158.53125 163.488281 160.46875 163.246094 162.40625 162.859375 C 162.914062 164.339844 163.285156 165.902344 163.425781 167.515625 Z M 156.625 160.4375 L 156.625 152.953125 C 158.054688 154.660156 159.8125 157.066406 161.195312 159.914062 C 159.65625 160.195312 158.132812 160.371094 156.625 160.4375 Z M 153.496094 160.4375 C 151.992188 160.363281 150.472656 160.195312 148.941406 159.90625 C 150.320312 157.066406 152.074219 154.667969 153.496094 152.960938 Z M 153.496094 177.714844 L 153.496094 185.191406 C 152.066406 183.484375 150.320312 181.085938 148.941406 178.246094 C 150.472656 177.964844 151.996094 177.789062 153.496094 177.714844 Z M 156.625 177.714844 C 158.125 177.789062 159.652344 177.957031 161.1875 178.238281 C 159.808594 181.078125 158.054688 183.484375 156.625 185.191406 Z M 166.558594 167.515625 C 166.414062 165.632812 166.027344 163.828125 165.472656 162.125 C 167.390625 161.59375 169.316406 160.914062 171.242188 160.09375 C 172.488281 162.328125 173.28125 164.839844 173.507812 167.515625 Z M 169.460938 157.457031 C 167.746094 158.15625 166.035156 158.730469 164.332031 159.195312 C 162.796875 155.824219 160.761719 153.003906 159.101562 151.015625 C 163.253906 151.941406 166.878906 154.261719 169.460938 157.460938 Z M 151.027344 151.015625 C 149.363281 153.003906 147.332031 155.816406 145.800781 159.1875 C 144.09375 158.726562 142.378906 158.148438 140.671875 157.457031 C 143.261719 154.261719 146.882812 151.941406 151.035156 151.015625 Z M 140.667969 180.703125 C 142.378906 180.003906 144.101562 179.429688 145.792969 178.972656 C 147.332031 182.339844 149.363281 185.15625 151.023438 187.144531 C 146.875 186.21875 143.25 183.898438 140.660156 180.703125 Z M 159.09375 187.144531 C 160.757812 185.15625 162.789062 182.335938 164.328125 178.964844 C 166.027344 179.429688 167.742188 180.003906 169.453125 180.703125 C 166.867188 183.898438 163.238281 186.21875 159.09375 187.144531 Z M 159.09375 187.144531 " fill-opacity="1" fill-rule="nonzero"/><path fill="#ea7b1f" d="M 210.546875 135.328125 L 208.839844 137.035156 C 208.296875 137.578125 208.226562 138.433594 208.679688 139.058594 L 217.042969 150.589844 L 207.191406 151.085938 L 200.824219 144.71875 C 200.210938 144.105469 199.222656 144.105469 198.609375 144.71875 L 196.648438 146.683594 C 196.128906 147.203125 196.042969 148 196.429688 148.621094 L 200.867188 155.65625 L 196.429688 162.6875 C 196.042969 163.308594 196.128906 164.113281 196.648438 164.628906 L 198.609375 166.589844 C 199.222656 167.203125 200.210938 167.203125 200.824219 166.589844 L 207.191406 160.226562 L 217.042969 160.71875 L 208.679688 172.25 C 208.226562 172.875 208.296875 173.730469 208.839844 174.277344 L 210.546875 175.984375 C 210.839844 176.277344 211.234375 176.4375 211.652344 176.4375 C 212.074219 176.4375 212.46875 176.277344 212.761719 175.984375 L 227.5 161.246094 L 237.019531 161.71875 C 239.035156 161.820312 242.046875 160.589844 243.742188 158.976562 C 244.800781 157.96875 245.355469 156.816406 245.355469 155.65625 C 245.355469 154.492188 244.800781 153.335938 243.742188 152.335938 C 242.046875 150.722656 239.015625 149.496094 237.019531 149.589844 L 227.5 150.066406 L 212.761719 135.328125 C 212.148438 134.714844 211.160156 134.714844 210.546875 135.328125 Z M 225.773438 152.765625 C 226.085938 153.078125 226.523438 153.246094 226.953125 153.222656 L 237.171875 152.710938 C 238.109375 152.667969 240.316406 153.390625 241.578125 154.59375 C 241.984375 154.980469 242.222656 155.367188 242.222656 155.648438 C 242.222656 155.929688 241.984375 156.316406 241.578125 156.707031 C 240.316406 157.90625 238.078125 158.632812 237.171875 158.585938 L 226.953125 158.074219 C 226.515625 158.054688 226.085938 158.21875 225.773438 158.53125 L 213.804688 170.5 L 221.269531 160.214844 C 221.609375 159.75 221.664062 159.136719 221.414062 158.617188 C 221.164062 158.101562 220.65625 157.761719 220.082031 157.730469 L 206.652344 157.054688 C 206.652344 157.054688 206.601562 157.054688 206.578125 157.054688 C 206.164062 157.054688 205.765625 157.21875 205.46875 157.511719 L 199.835938 163.144531 L 203.902344 156.707031 C 204.058594 156.457031 204.144531 156.167969 204.144531 155.875 L 204.144531 155.421875 C 204.144531 155.128906 204.0625 154.84375 203.902344 154.59375 L 199.835938 148.152344 L 205.46875 153.785156 C 205.78125 154.097656 206.203125 154.261719 206.652344 154.242188 L 220.082031 153.566406 C 220.65625 153.535156 221.164062 153.199219 221.414062 152.679688 C 221.664062 152.160156 221.609375 151.554688 221.269531 151.085938 L 213.804688 140.796875 Z M 225.773438 152.765625 " fill-opacity="1" fill-rule="nonzero"/><g clip-path="url(#b9482f467e)"><path fill="#ea7b1f" d="M 216.28125 113.144531 C 215.667969 112.53125 214.679688 112.53125 214.066406 113.144531 L 189.800781 137.410156 C 189.394531 137.335938 188.980469 137.296875 188.5625 137.296875 L 121.554688 137.296875 C 117.746094 137.296875 114.648438 140.390625 114.648438 144.199219 L 114.648438 233.09375 C 114.648438 236.902344 117.746094 239.996094 121.554688 239.996094 L 132.664062 239.996094 L 154.648438 261.988281 C 154.941406 262.28125 155.335938 262.445312 155.753906 262.445312 C 156.175781 262.445312 156.566406 262.28125 156.863281 261.988281 L 178.851562 239.996094 L 188.570312 239.996094 C 192.378906 239.996094 195.472656 236.902344 195.472656 233.09375 L 195.472656 223.378906 L 259.894531 158.957031 C 260.1875 158.664062 260.351562 158.269531 260.351562 157.851562 C 260.351562 157.429688 260.1875 157.035156 259.894531 156.742188 Z M 155.753906 258.667969 L 137.085938 239.996094 L 174.425781 239.996094 Z M 192.347656 233.09375 C 192.347656 235.175781 190.652344 236.871094 188.570312 236.871094 L 121.554688 236.871094 C 119.472656 236.871094 117.777344 235.175781 117.777344 233.09375 L 117.777344 144.199219 C 117.777344 142.117188 119.472656 140.421875 121.554688 140.421875 L 188.5625 140.421875 C 188.980469 140.421875 189.386719 140.492188 189.78125 140.625 C 191.3125 141.144531 192.347656 142.582031 192.347656 144.199219 Z M 195.472656 173.8125 L 218.042969 196.378906 L 195.472656 218.949219 Z M 220.25 194.171875 L 195.464844 169.390625 L 195.464844 144.199219 C 195.464844 143.960938 195.445312 143.726562 195.421875 143.488281 C 195.414062 143.425781 195.410156 143.363281 195.398438 143.300781 C 195.371094 143.09375 195.335938 142.894531 195.289062 142.691406 C 195.285156 142.660156 195.277344 142.636719 195.273438 142.605469 C 195.222656 142.378906 195.152344 142.160156 195.078125 141.941406 C 195.058594 141.886719 195.039062 141.835938 195.015625 141.78125 C 194.945312 141.597656 194.871094 141.425781 194.789062 141.25 C 194.773438 141.210938 194.753906 141.167969 194.734375 141.128906 C 194.632812 140.921875 194.523438 140.730469 194.402344 140.535156 C 194.378906 140.492188 194.347656 140.449219 194.320312 140.410156 C 194.214844 140.253906 194.109375 140.097656 193.992188 139.949219 C 193.960938 139.910156 193.929688 139.867188 193.898438 139.828125 C 193.753906 139.65625 193.601562 139.484375 193.441406 139.324219 C 193.414062 139.296875 193.382812 139.265625 193.351562 139.242188 C 193.207031 139.105469 193.066406 138.972656 192.910156 138.847656 C 192.882812 138.828125 192.863281 138.804688 192.839844 138.785156 L 215.167969 116.457031 L 256.566406 157.851562 L 220.246094 194.171875 Z M 220.25 194.171875 " fill-opacity="1" fill-rule="nonzero"/></g></svg>