<svg xmlns="http://www.w3.org/2000/svg" xmlns:xlink="http://www.w3.org/1999/xlink" zoomAndPan="magnify" preserveAspectRatio="xMidYMid meet" version="1.0" viewBox="115.28 109.88 144.42 156.97"><defs><clipPath id="6f9a95a2c8"><path d="M 144 243 L 160 243 L 160 266.851562 L 144 266.851562 Z M 144 243 " clip-rule="nonzero"/></clipPath><clipPath id="e97cdaaffb"><path d="M 209 243 L 225 243 L 225 266.851562 L 209 266.851562 Z M 209 243 " clip-rule="nonzero"/></clipPath></defs><path fill="#ea7b1f" d="M 252.449219 239.78125 L 229.773438 239.78125 C 227.386719 239.78125 227.386719 236.109375 229.773438 236.109375 L 252.449219 236.109375 C 254.375 236.109375 256.027344 234.546875 256.027344 232.527344 L 256.027344 127.050781 C 256.027344 122.640625 250.886719 123.46875 247.582031 123.46875 C 245.105469 123.46875 245.105469 119.796875 247.582031 119.796875 L 252.449219 119.796875 C 256.488281 119.796875 259.699219 123.101562 259.699219 127.050781 L 259.699219 232.527344 C 259.699219 236.566406 256.488281 239.78125 252.449219 239.78125 Z M 142.5625 239.78125 L 122.460938 239.78125 C 118.511719 239.78125 115.300781 236.566406 115.300781 232.527344 L 115.300781 127.050781 C 115.300781 123.101562 118.511719 119.796875 122.460938 119.796875 C 125.671875 119.796875 129.253906 119.152344 129.253906 121.632812 C 129.253906 124.203125 125.671875 123.46875 122.460938 123.46875 C 120.53125 123.46875 118.972656 125.121094 118.972656 127.050781 L 118.972656 232.527344 C 118.972656 234.546875 120.53125 236.109375 122.460938 236.109375 L 142.5625 236.109375 C 144.949219 236.109375 144.949219 239.78125 142.5625 239.78125 Z M 238.863281 123.46875 L 225.277344 123.46875 C 222.796875 123.46875 222.796875 119.796875 225.277344 119.796875 L 238.863281 119.796875 C 241.25 119.796875 241.25 123.46875 238.863281 123.46875 Z M 216.554688 123.46875 L 202.96875 123.46875 C 200.582031 123.46875 200.582031 119.796875 202.96875 119.796875 L 216.554688 119.796875 C 218.941406 119.796875 219.035156 123.46875 216.554688 123.46875 Z M 194.246094 123.46875 L 180.660156 123.46875 C 178.273438 123.46875 178.273438 119.796875 180.660156 119.796875 L 194.246094 119.796875 C 196.726562 119.796875 196.726562 123.46875 194.246094 123.46875 Z M 172.03125 123.46875 L 158.351562 123.46875 C 155.964844 123.46875 155.964844 119.796875 158.351562 119.796875 L 172.03125 119.796875 C 174.417969 119.796875 174.417969 123.46875 172.03125 123.46875 Z M 149.722656 123.46875 L 136.136719 123.46875 C 133.660156 123.46875 133.660156 119.796875 136.136719 119.796875 L 149.722656 119.796875 C 152.109375 119.796875 152.109375 123.46875 149.722656 123.46875 Z M 149.722656 123.46875 " fill-opacity="1" fill-rule="evenodd"/><path fill="#ea7b1f" d="M 257.863281 145.777344 L 117.136719 145.777344 C 114.65625 145.777344 114.65625 142.105469 117.136719 142.105469 L 257.863281 142.105469 C 260.25 142.105469 260.34375 145.777344 257.863281 145.777344 Z M 257.863281 145.777344 " fill-opacity="1" fill-rule="evenodd"/><path fill="#ea7b1f" d="M 131.730469 133.476562 C 128.335938 133.476562 125.582031 130.722656 125.582031 127.324219 L 125.582031 115.941406 C 125.582031 107.863281 137.972656 107.863281 137.972656 115.941406 L 137.972656 127.324219 C 137.972656 130.722656 135.128906 133.476562 131.730469 133.476562 Z M 131.730469 113.460938 C 130.355469 113.460938 129.253906 114.5625 129.253906 115.941406 L 129.253906 127.324219 C 129.253906 130.628906 134.300781 130.628906 134.300781 127.324219 L 134.300781 115.941406 C 134.300781 114.5625 133.109375 113.460938 131.730469 113.460938 Z M 131.730469 113.460938 " fill-opacity="1" fill-rule="evenodd"/><path fill="#ea7b1f" d="M 154.039062 133.476562 C 150.640625 133.476562 147.886719 130.722656 147.886719 127.324219 L 147.886719 115.941406 C 147.886719 107.863281 160.1875 107.863281 160.1875 115.941406 L 160.1875 127.324219 C 160.1875 130.722656 157.433594 133.476562 154.039062 133.476562 Z M 154.039062 113.460938 C 152.660156 113.460938 151.558594 114.5625 151.558594 115.941406 L 151.558594 127.324219 C 151.558594 130.628906 156.515625 130.628906 156.515625 127.324219 L 156.515625 115.941406 C 156.515625 114.5625 155.414062 113.460938 154.039062 113.460938 Z M 154.039062 113.460938 " fill-opacity="1" fill-rule="evenodd"/><path fill="#ea7b1f" d="M 176.347656 133.476562 C 172.949219 133.476562 170.195312 130.722656 170.195312 127.324219 L 170.195312 115.941406 C 170.195312 107.863281 182.496094 107.863281 182.496094 115.941406 L 182.496094 127.324219 C 182.496094 130.722656 179.742188 133.476562 176.347656 133.476562 Z M 176.347656 113.460938 C 174.96875 113.460938 173.867188 114.5625 173.867188 115.941406 L 173.867188 127.324219 C 173.867188 130.628906 178.824219 130.628906 178.824219 127.324219 L 178.824219 115.941406 C 178.824219 114.5625 177.722656 113.460938 176.347656 113.460938 Z M 176.347656 113.460938 " fill-opacity="1" fill-rule="evenodd"/><path fill="#ea7b1f" d="M 198.652344 133.476562 C 195.257812 133.476562 192.410156 130.722656 192.410156 127.324219 L 192.410156 115.941406 C 192.410156 107.863281 204.804688 107.863281 204.804688 115.941406 L 204.804688 127.324219 C 204.804688 130.722656 202.050781 133.476562 198.652344 133.476562 Z M 198.652344 113.460938 C 197.277344 113.460938 196.082031 114.5625 196.082031 115.941406 L 196.082031 127.324219 C 196.082031 130.628906 201.132812 130.628906 201.132812 127.324219 L 201.132812 115.941406 C 201.132812 114.5625 200.03125 113.460938 198.652344 113.460938 Z M 198.652344 113.460938 " fill-opacity="1" fill-rule="evenodd"/><path fill="#ea7b1f" d="M 220.871094 133.476562 C 217.472656 133.476562 214.71875 130.722656 214.71875 127.324219 L 214.71875 115.941406 C 214.71875 107.863281 227.113281 107.863281 227.113281 115.941406 L 227.113281 127.324219 C 227.113281 130.722656 224.359375 133.476562 220.871094 133.476562 Z M 220.871094 113.460938 C 219.492188 113.460938 218.390625 114.5625 218.390625 115.941406 L 218.390625 127.324219 C 218.390625 130.628906 223.441406 130.628906 223.441406 127.324219 L 223.441406 115.941406 C 223.441406 114.5625 222.339844 113.460938 220.871094 113.460938 Z M 220.871094 113.460938 " fill-opacity="1" fill-rule="evenodd"/><path fill="#ea7b1f" d="M 243.175781 133.476562 C 239.78125 133.476562 237.027344 130.722656 237.027344 127.324219 L 237.027344 115.941406 C 237.027344 107.863281 249.328125 107.863281 249.328125 115.941406 L 249.328125 127.324219 C 249.328125 130.722656 246.574219 133.476562 243.175781 133.476562 Z M 243.175781 113.460938 C 241.800781 113.460938 240.699219 114.5625 240.699219 115.941406 L 240.699219 127.324219 C 240.699219 130.628906 245.746094 130.628906 245.746094 127.324219 L 245.746094 115.941406 C 245.746094 114.5625 244.554688 113.460938 243.175781 113.460938 Z M 243.175781 113.460938 " fill-opacity="1" fill-rule="evenodd"/><path fill="#ea7b1f" d="M 219.769531 247.125 L 142.472656 247.125 C 141.460938 247.125 140.636719 246.296875 140.636719 245.289062 L 140.636719 238.585938 C 140.636719 233.8125 144.492188 230.050781 149.171875 230.050781 L 220.226562 230.050781 L 236.199219 213.984375 C 239.046875 211.136719 243.542969 211.136719 246.296875 213.984375 C 248.777344 216.371094 251.804688 218.480469 250.0625 220.316406 C 246.941406 223.4375 226.011719 244.644531 224.265625 245.746094 C 222.980469 246.664062 221.421875 247.125 219.769531 247.125 Z M 144.308594 243.453125 L 219.769531 243.453125 C 221.144531 243.453125 222.246094 242.902344 223.257812 241.890625 L 246.207031 219.03125 C 244.460938 217.289062 241.707031 213.707031 238.863281 216.554688 L 222.246094 233.171875 C 221.878906 233.539062 221.421875 233.722656 220.960938 233.722656 L 149.171875 233.722656 C 146.511719 233.722656 144.308594 235.832031 144.308594 238.585938 Z M 144.308594 243.453125 " fill-opacity="1" fill-rule="evenodd"/><path fill="#ea7b1f" d="M 240.789062 207.097656 C 240.515625 207.097656 240.148438 207.097656 239.871094 206.914062 L 192.320312 179.375 C 191.402344 178.917969 191.125 177.816406 191.585938 176.898438 C 197.828125 166.0625 214.351562 163.859375 228.398438 171.9375 C 242.351562 180.019531 248.683594 195.347656 242.441406 206.179688 C 242.074219 206.824219 241.433594 207.097656 240.789062 207.097656 Z M 195.808594 177.171875 L 240.054688 202.691406 C 243.820312 193.789062 238.035156 181.761719 226.5625 175.058594 C 214.996094 168.449219 201.683594 169.460938 195.808594 177.171875 Z M 195.808594 177.171875 " fill-opacity="1" fill-rule="evenodd"/><path fill="#ea7b1f" d="M 227.847656 199.664062 C 226.378906 199.664062 225.550781 198.101562 226.195312 196.910156 C 231.425781 187.914062 231.519531 178 226.5625 175.058594 C 221.511719 172.214844 212.882812 177.265625 207.742188 186.261719 C 206.546875 188.28125 203.335938 186.445312 204.621094 184.425781 C 210.953125 173.40625 221.421875 167.898438 228.304688 171.847656 C 235.28125 175.886719 235.742188 187.636719 229.40625 198.746094 C 229.039062 199.296875 228.488281 199.664062 227.847656 199.664062 Z M 227.847656 199.664062 " fill-opacity="1" fill-rule="evenodd"/><path fill="#ea7b1f" d="M 193.695312 233.722656 C 192.320312 233.722656 191.402344 232.160156 192.136719 230.96875 L 215.453125 190.667969 C 216.648438 188.554688 219.769531 190.390625 218.574219 192.503906 L 195.347656 232.804688 C 194.980469 233.355469 194.339844 233.722656 193.695312 233.722656 Z M 193.695312 233.722656 " fill-opacity="1" fill-rule="evenodd"/><g clip-path="url(#6f9a95a2c8)"><path fill="#ea7b1f" d="M 152.019531 266.402344 C 149.355469 266.402344 145.59375 266.953125 144.675781 265.757812 C 144.308594 265.300781 144.214844 264.65625 144.308594 264.105469 L 149.816406 244.738281 C 150.367188 242.71875 153.855469 243.453125 157.527344 243.453125 C 158.71875 243.453125 159.546875 244.644531 159.269531 245.746094 L 153.855469 265.117188 C 153.578125 265.941406 152.84375 266.402344 152.019531 266.402344 Z M 148.53125 262.820312 L 150.640625 262.820312 L 155.046875 247.125 L 152.9375 247.125 Z M 148.53125 262.820312 " fill-opacity="1" fill-rule="evenodd"/></g><g clip-path="url(#e97cdaaffb)"><path fill="#ea7b1f" d="M 222.796875 266.402344 C 219.125 266.402344 215.730469 267.136719 215.085938 265.117188 L 209.667969 245.746094 C 209.394531 244.644531 210.21875 243.453125 211.503906 243.453125 C 215.179688 243.453125 218.574219 242.71875 219.21875 244.738281 L 224.632812 264.105469 C 224.910156 265.300781 224.082031 266.402344 222.796875 266.402344 Z M 218.300781 262.820312 L 220.410156 262.820312 L 216.003906 247.125 L 213.894531 247.125 Z M 218.300781 262.820312 " fill-opacity="1" fill-rule="evenodd"/></g><path fill="#ea7b1f" d="M 156.242188 194.246094 C 149.539062 194.246094 144.125 188.832031 144.125 182.128906 C 144.125 175.519531 149.539062 170.101562 156.242188 170.101562 C 162.851562 170.101562 168.269531 175.519531 168.269531 182.128906 C 168.269531 188.832031 162.851562 194.246094 156.242188 194.246094 Z M 156.242188 173.773438 C 145.132812 173.773438 145.132812 190.574219 156.242188 190.574219 C 167.257812 190.574219 167.257812 173.773438 156.242188 173.773438 Z M 156.242188 173.773438 " fill-opacity="1" fill-rule="evenodd"/><path fill="#ea7b1f" d="M 156.242188 166.15625 C 153.671875 166.15625 154.40625 162.667969 154.40625 159.453125 C 154.40625 157.066406 158.078125 157.066406 158.078125 159.453125 C 158.078125 162.667969 158.71875 166.15625 156.242188 166.15625 Z M 156.242188 166.15625 " fill-opacity="1" fill-rule="evenodd"/><path fill="#ea7b1f" d="M 165.054688 168.542969 C 163.679688 168.542969 162.851562 167.074219 163.496094 165.789062 C 165.054688 163.035156 166.339844 159.636719 168.453125 160.921875 C 170.65625 162.117188 168.269531 164.960938 166.707031 167.625 C 166.339844 168.265625 165.699219 168.542969 165.054688 168.542969 Z M 165.054688 168.542969 " fill-opacity="1" fill-rule="evenodd"/><path fill="#ea7b1f" d="M 171.664062 175.152344 C 169.738281 175.152344 169.09375 172.671875 170.746094 171.664062 C 173.5 170.101562 176.164062 167.714844 177.449219 169.917969 C 178.734375 172.03125 175.335938 173.316406 172.582031 174.875 C 172.214844 175.058594 171.941406 175.152344 171.664062 175.152344 Z M 171.664062 175.152344 " fill-opacity="1" fill-rule="evenodd"/><path fill="#ea7b1f" d="M 178.917969 183.964844 C 175.703125 183.964844 172.214844 184.699219 172.214844 182.128906 C 172.214844 179.652344 175.703125 180.292969 178.917969 180.292969 C 181.304688 180.292969 181.304688 183.964844 178.917969 183.964844 Z M 178.917969 183.964844 " fill-opacity="1" fill-rule="evenodd"/><path fill="#ea7b1f" d="M 175.886719 195.347656 C 174.96875 195.347656 171.847656 193.328125 170.746094 192.6875 C 168.636719 191.492188 170.472656 188.28125 172.582031 189.472656 C 175.246094 191.035156 178.734375 192.320312 177.449219 194.429688 C 177.082031 195.074219 176.53125 195.347656 175.886719 195.347656 Z M 175.886719 195.347656 " fill-opacity="1" fill-rule="evenodd"/><path fill="#ea7b1f" d="M 167.535156 203.703125 C 165.882812 203.703125 164.871094 200.949219 163.496094 198.5625 C 162.300781 196.449219 165.515625 194.613281 166.707031 196.726562 C 168.269531 199.386719 170.65625 202.234375 168.453125 203.425781 C 168.175781 203.609375 167.902344 203.703125 167.535156 203.703125 Z M 167.535156 203.703125 " fill-opacity="1" fill-rule="evenodd"/><path fill="#ea7b1f" d="M 156.242188 206.730469 C 153.671875 206.730469 154.40625 203.152344 154.40625 199.9375 C 154.40625 197.550781 158.078125 197.550781 158.078125 199.9375 C 158.078125 203.152344 158.71875 206.730469 156.242188 206.730469 Z M 156.242188 206.730469 " fill-opacity="1" fill-rule="evenodd"/><path fill="#ea7b1f" d="M 144.859375 203.703125 C 143.390625 203.703125 142.5625 202.140625 143.207031 200.949219 C 144.859375 198.195312 146.050781 194.796875 148.164062 195.992188 C 150.367188 197.277344 147.980469 200.03125 146.417969 202.785156 C 146.050781 203.335938 145.5 203.703125 144.859375 203.703125 Z M 144.859375 203.703125 " fill-opacity="1" fill-rule="evenodd"/><path fill="#ea7b1f" d="M 136.503906 195.347656 C 134.667969 195.347656 133.933594 192.871094 135.585938 191.953125 C 138.339844 190.300781 141.09375 188.003906 142.378906 190.117188 C 143.664062 192.320312 140.175781 193.511719 137.421875 195.164062 C 137.148438 195.257812 136.871094 195.347656 136.503906 195.347656 Z M 136.503906 195.347656 " fill-opacity="1" fill-rule="evenodd"/><path fill="#ea7b1f" d="M 138.433594 183.964844 C 135.21875 183.964844 131.640625 184.699219 131.640625 182.128906 C 131.640625 179.652344 135.21875 180.292969 138.433594 180.292969 C 140.820312 180.292969 140.820312 183.964844 138.433594 183.964844 Z M 138.433594 183.964844 " fill-opacity="1" fill-rule="evenodd"/><path fill="#ea7b1f" d="M 140.820312 175.152344 C 139.902344 175.152344 136.78125 173.132812 135.585938 172.398438 C 133.566406 171.203125 135.3125 167.992188 137.421875 169.183594 C 140.175781 170.835938 143.574219 172.03125 142.378906 174.234375 C 142.011719 174.785156 141.371094 175.152344 140.820312 175.152344 Z M 140.820312 175.152344 " fill-opacity="1" fill-rule="evenodd"/><path fill="#ea7b1f" d="M 147.335938 168.542969 C 145.683594 168.542969 144.675781 165.789062 143.207031 163.402344 C 142.011719 161.382812 145.226562 159.453125 146.417969 161.566406 C 147.980469 164.320312 150.367188 167.074219 148.253906 168.359375 C 147.886719 168.542969 147.613281 168.542969 147.335938 168.542969 Z M 147.335938 168.542969 " fill-opacity="1" fill-rule="evenodd"/></svg>