<svg xmlns="http://www.w3.org/2000/svg" xmlns:xlink="http://www.w3.org/1999/xlink" zoomAndPan="magnify" preserveAspectRatio="xMidYMid meet" version="1.0" viewBox="114.63 114.66 145.73 145.69"><defs><clipPath id="8397d22617"><path d="M 114.65625 243 L 260.15625 243 L 260.15625 260.15625 L 114.65625 260.15625 Z M 114.65625 243 " clip-rule="nonzero"/></clipPath><clipPath id="77b2a8ee28"><path d="M 114.65625 114.65625 L 260.15625 114.65625 L 260.15625 239 L 114.65625 239 Z M 114.65625 114.65625 " clip-rule="nonzero"/></clipPath></defs><g clip-path="url(#8397d22617)"><path fill="#ea7b1f" d="M 257.914062 255.488281 C 249.855469 255.488281 245.894531 252.742188 241.671875 249.855469 C 237.253906 246.820312 232.25 243.347656 222.683594 243.347656 C 213.117188 243.347656 208.113281 246.792969 203.695312 249.855469 C 199.496094 252.742188 195.511719 255.488281 187.476562 255.488281 C 179.4375 255.488281 175.457031 252.742188 171.253906 249.855469 C 166.835938 246.820312 161.835938 243.347656 152.269531 243.347656 C 142.699219 243.347656 137.699219 246.792969 133.28125 249.855469 C 129.078125 252.742188 125.097656 255.488281 117.058594 255.488281 C 115.726562 255.488281 114.632812 256.582031 114.632812 257.914062 C 114.632812 259.25 115.726562 260.34375 117.058594 260.34375 C 126.625 260.34375 131.628906 256.894531 136.046875 253.835938 C 140.25 250.945312 144.230469 248.203125 152.269531 248.203125 C 160.304688 248.203125 164.289062 250.945312 168.488281 253.835938 C 172.90625 256.871094 177.910156 260.34375 187.476562 260.34375 C 197.042969 260.34375 202.042969 256.894531 206.464844 253.835938 C 210.664062 250.945312 214.644531 248.203125 222.683594 248.203125 C 230.71875 248.203125 234.703125 250.945312 238.925781 253.835938 C 243.347656 256.871094 248.347656 260.34375 257.914062 260.34375 C 259.25 260.34375 260.34375 259.25 260.34375 257.914062 C 260.34375 256.582031 259.25 255.488281 257.914062 255.488281 Z M 257.914062 255.488281 " fill-opacity="1" fill-rule="nonzero"/></g><g clip-path="url(#77b2a8ee28)"><path fill="#ea7b1f" d="M 117.085938 238.492188 C 126.652344 238.492188 131.652344 235.042969 136.074219 231.984375 C 140.273438 229.09375 144.253906 226.351562 152.292969 226.351562 C 160.328125 226.351562 164.3125 229.09375 168.511719 231.984375 C 172.929688 235.019531 177.933594 238.492188 187.5 238.492188 C 197.066406 238.492188 202.070312 235.042969 206.488281 231.984375 C 210.6875 229.09375 214.671875 226.351562 222.707031 226.351562 C 230.746094 226.351562 234.726562 229.09375 238.953125 231.984375 C 243.371094 235.019531 248.375 238.492188 257.941406 238.492188 C 259.273438 238.492188 260.367188 237.398438 260.367188 236.0625 C 260.367188 234.726562 259.273438 233.632812 257.941406 233.632812 C 249.878906 233.632812 245.921875 230.890625 241.695312 228 C 237.785156 225.304688 233.367188 222.296875 225.765625 221.640625 C 235.867188 209.230469 239.484375 197.917969 240.75 191.96875 C 241.5 188.59375 239.730469 185.097656 236.546875 183.6875 L 231.230469 181.332031 L 231.230469 155.933594 C 231.230469 150.082031 227.054688 145.179688 221.519531 144.035156 L 221.519531 134.082031 L 223.945312 134.082031 C 225.28125 134.082031 226.375 132.988281 226.375 131.652344 C 226.375 130.316406 225.28125 129.226562 223.945312 129.226562 L 209.378906 129.226562 L 209.378906 121.941406 C 209.378906 117.933594 206.097656 114.65625 202.09375 114.65625 L 172.957031 114.65625 C 168.949219 114.65625 165.671875 117.933594 165.671875 121.941406 L 165.671875 129.226562 L 151.101562 129.226562 C 149.765625 129.226562 148.675781 130.316406 148.675781 131.652344 C 148.675781 132.988281 149.765625 134.082031 151.101562 134.082031 L 153.53125 134.082031 L 153.53125 144.035156 C 147.996094 145.152344 143.816406 150.058594 143.816406 155.933594 L 143.816406 181.332031 L 138.476562 183.6875 C 135.296875 185.097656 133.523438 188.59375 134.277344 191.945312 C 135.539062 197.917969 139.179688 209.230469 149.28125 221.640625 C 141.65625 222.296875 137.261719 225.304688 133.328125 228 C 129.128906 230.890625 125.144531 233.632812 117.109375 233.632812 C 115.773438 233.632812 114.679688 234.726562 114.679688 236.0625 C 114.679688 237.398438 115.773438 238.492188 117.109375 238.492188 Z M 170.503906 121.941406 C 170.503906 120.605469 171.597656 119.511719 172.929688 119.511719 L 202.070312 119.511719 C 203.402344 119.511719 204.496094 120.605469 204.496094 121.941406 L 204.496094 129.226562 L 170.503906 129.226562 Z M 216.636719 134.082031 L 216.636719 143.792969 L 158.363281 143.792969 L 158.363281 134.082031 Z M 148.648438 155.933594 C 148.648438 151.929688 151.929688 148.648438 155.933594 148.648438 L 219.066406 148.648438 C 223.070312 148.648438 226.351562 151.929688 226.351562 155.933594 L 226.351562 179.195312 L 192.429688 164.238281 C 189.296875 162.878906 185.726562 162.878906 182.570312 164.238281 L 148.648438 179.171875 L 148.648438 155.910156 Z M 140.417969 188.105469 L 184.488281 168.683594 C 186.382812 167.855469 188.570312 167.855469 190.460938 168.683594 L 234.558594 188.105469 C 235.648438 188.59375 236.234375 189.757812 235.988281 190.921875 C 234.703125 196.921875 230.84375 208.820312 219.355469 221.640625 C 211.902344 222.34375 207.582031 225.304688 203.71875 227.976562 C 199.519531 230.867188 195.535156 233.609375 187.5 233.609375 C 179.464844 233.609375 175.480469 230.867188 171.28125 227.976562 C 167.417969 225.304688 163.097656 222.320312 155.667969 221.640625 C 144.183594 208.820312 140.296875 196.921875 139.011719 190.898438 C 138.765625 189.757812 139.351562 188.59375 140.441406 188.105469 Z M 140.417969 188.105469 " fill-opacity="1" fill-rule="nonzero"/></g></svg>