<svg xmlns="http://www.w3.org/2000/svg" xmlns:xlink="http://www.w3.org/1999/xlink" zoomAndPan="magnify" preserveAspectRatio="xMidYMid meet" version="1.0" viewBox="115 131.32 145 112.5"><defs><clipPath id="fa3de98944"><path d="M 115 131.320312 L 260 131.320312 L 260 243.820312 L 115 243.820312 Z M 115 131.320312 " clip-rule="nonzero"/></clipPath></defs><g clip-path="url(#fa3de98944)"><path fill="#ea7b1f" d="M 248.722656 155.964844 L 233.109375 155.964844 L 233.109375 145.515625 C 233.105469 144.582031 233.011719 143.660156 232.828125 142.742188 C 232.644531 141.828125 232.375 140.941406 232.015625 140.082031 C 231.660156 139.21875 231.21875 138.402344 230.699219 137.625 C 230.179688 136.851562 229.589844 136.132812 228.929688 135.476562 C 228.269531 134.816406 227.550781 134.226562 226.777344 133.710938 C 226 133.191406 225.179688 132.753906 224.320312 132.398438 C 223.457031 132.042969 222.570312 131.773438 221.652344 131.59375 C 220.738281 131.410156 219.816406 131.320312 218.882812 131.320312 L 176.929688 131.320312 C 175.996094 131.320312 175.074219 131.414062 174.160156 131.597656 C 173.246094 131.78125 172.359375 132.050781 171.5 132.40625 C 170.640625 132.765625 169.824219 133.203125 169.046875 133.722656 C 168.273438 134.238281 167.558594 134.828125 166.898438 135.484375 C 166.242188 136.144531 165.652344 136.859375 165.132812 137.636719 C 164.617188 138.410156 164.179688 139.226562 163.820312 140.085938 C 163.464844 140.949219 163.195312 141.835938 163.011719 142.746094 C 162.828125 143.660156 162.734375 144.582031 162.734375 145.515625 L 162.734375 155.964844 L 147.117188 155.964844 C 146.402344 155.976562 145.699219 156.058594 145 156.207031 C 144.304688 156.355469 143.628906 156.570312 142.972656 156.851562 C 142.316406 157.132812 141.695312 157.472656 141.105469 157.875 C 140.515625 158.277344 139.972656 158.730469 139.46875 159.238281 C 138.96875 159.746094 138.523438 160.296875 138.128906 160.890625 C 137.734375 161.488281 137.402344 162.113281 137.132812 162.773438 C 136.859375 163.433594 136.65625 164.113281 136.515625 164.8125 C 136.375 165.511719 136.304688 166.21875 136.304688 166.929688 L 136.304688 182.304688 C 136.304688 182.605469 136.363281 182.894531 136.476562 183.171875 C 136.589844 183.449219 136.753906 183.691406 136.96875 183.90625 C 137.179688 184.117188 137.425781 184.28125 137.703125 184.398438 C 137.980469 184.511719 138.269531 184.570312 138.570312 184.570312 C 138.871094 184.570312 139.160156 184.511719 139.4375 184.398438 C 139.714844 184.28125 139.957031 184.117188 140.171875 183.90625 C 140.382812 183.691406 140.546875 183.449219 140.664062 183.171875 C 140.777344 182.894531 140.835938 182.605469 140.835938 182.304688 L 140.835938 166.929688 C 140.835938 166.507812 140.875 166.089844 140.957031 165.675781 C 141.039062 165.261719 141.164062 164.859375 141.324219 164.46875 C 141.484375 164.078125 141.683594 163.707031 141.917969 163.355469 C 142.152344 163.003906 142.421875 162.679688 142.71875 162.378906 C 143.019531 162.082031 143.34375 161.816406 143.695312 161.582031 C 144.046875 161.347656 144.414062 161.148438 144.804688 160.984375 C 145.195312 160.824219 145.597656 160.703125 146.011719 160.621094 C 146.425781 160.539062 146.84375 160.496094 147.269531 160.496094 L 248.722656 160.496094 C 249.144531 160.496094 249.5625 160.539062 249.976562 160.621094 C 250.390625 160.703125 250.792969 160.824219 251.179688 160.988281 C 251.570312 161.148438 251.941406 161.347656 252.289062 161.582031 C 252.640625 161.816406 252.964844 162.082031 253.261719 162.382812 C 253.558594 162.679688 253.824219 163.007812 254.058594 163.359375 C 254.292969 163.710938 254.488281 164.078125 254.648438 164.46875 C 254.808594 164.859375 254.929688 165.261719 255.007812 165.675781 C 255.089844 166.089844 255.128906 166.507812 255.128906 166.929688 L 255.128906 182.214844 L 239.570312 182.214844 C 239.445312 181.5 239.203125 180.832031 238.84375 180.203125 C 238.480469 179.574219 238.027344 179.027344 237.476562 178.558594 C 236.925781 178.089844 236.308594 177.730469 235.632812 177.476562 C 234.953125 177.21875 234.253906 177.089844 233.53125 177.078125 L 221.449219 177.078125 C 220.726562 177.09375 220.027344 177.230469 219.355469 177.488281 C 218.679688 177.742188 218.066406 178.105469 217.515625 178.574219 C 216.964844 179.039062 216.511719 179.585938 216.148438 180.210938 C 215.789062 180.835938 215.539062 181.503906 215.410156 182.214844 L 180.734375 182.214844 C 180.601562 181.503906 180.355469 180.835938 179.992188 180.210938 C 179.632812 179.585938 179.175781 179.039062 178.625 178.574219 C 178.074219 178.105469 177.464844 177.742188 176.789062 177.488281 C 176.113281 177.230469 175.414062 177.09375 174.695312 177.078125 L 162.613281 177.078125 C 161.890625 177.09375 161.191406 177.230469 160.515625 177.488281 C 159.839844 177.742188 159.230469 178.105469 158.679688 178.574219 C 158.128906 179.039062 157.671875 179.585938 157.3125 180.210938 C 156.949219 180.835938 156.703125 181.503906 156.570312 182.214844 L 148.386719 182.214844 C 148.085938 182.214844 147.796875 182.269531 147.519531 182.386719 C 147.242188 182.5 146.996094 182.664062 146.785156 182.875 C 146.570312 183.089844 146.40625 183.335938 146.292969 183.613281 C 146.179688 183.890625 146.121094 184.179688 146.121094 184.480469 C 146.121094 184.777344 146.179688 185.066406 146.292969 185.34375 C 146.40625 185.621094 146.570312 185.867188 146.785156 186.082031 C 146.996094 186.292969 147.242188 186.457031 147.519531 186.570312 C 147.796875 186.6875 148.085938 186.742188 148.386719 186.742188 L 156.027344 186.742188 L 156.027344 189.765625 C 156.027344 190.066406 156.085938 190.355469 156.199219 190.632812 C 156.316406 190.910156 156.476562 191.152344 156.691406 191.367188 C 156.902344 191.578125 157.148438 191.742188 157.425781 191.855469 C 157.703125 191.972656 157.992188 192.03125 158.292969 192.03125 L 178.589844 192.03125 C 178.890625 192.03125 179.179688 191.972656 179.457031 191.855469 C 179.734375 191.742188 179.980469 191.578125 180.191406 191.367188 C 180.402344 191.152344 180.566406 190.910156 180.683594 190.632812 C 180.796875 190.355469 180.855469 190.066406 180.855469 189.765625 L 180.855469 186.742188 L 215.015625 186.742188 L 215.015625 189.765625 C 215.015625 190.066406 215.074219 190.355469 215.1875 190.632812 C 215.304688 190.910156 215.46875 191.152344 215.679688 191.367188 C 215.890625 191.578125 216.136719 191.742188 216.414062 191.855469 C 216.691406 191.972656 216.980469 192.03125 217.28125 192.03125 L 237.425781 192.03125 C 237.726562 192.03125 238.015625 191.972656 238.292969 191.855469 C 238.570312 191.742188 238.816406 191.578125 239.027344 191.367188 C 239.242188 191.152344 239.40625 190.910156 239.519531 190.632812 C 239.636719 190.355469 239.691406 190.066406 239.691406 189.765625 L 239.691406 186.742188 L 255.128906 186.742188 L 255.128906 232.652344 C 255.128906 233.074219 255.085938 233.492188 255.003906 233.90625 C 254.921875 234.320312 254.800781 234.71875 254.640625 235.109375 C 254.480469 235.5 254.28125 235.867188 254.050781 236.21875 C 253.816406 236.570312 253.550781 236.894531 253.253906 237.191406 C 252.957031 237.492188 252.632812 237.757812 252.285156 237.992188 C 251.933594 238.226562 251.566406 238.425781 251.175781 238.589844 C 250.789062 238.75 250.386719 238.875 249.972656 238.957031 C 249.5625 239.042969 249.144531 239.085938 248.722656 239.085938 L 152.402344 239.085938 L 154.820312 237.941406 C 155.59375 237.566406 156.339844 237.140625 157.054688 236.664062 C 157.773438 236.1875 158.453125 235.660156 159.09375 235.085938 C 159.734375 234.515625 160.335938 233.898438 160.890625 233.242188 C 161.445312 232.585938 161.953125 231.890625 162.410156 231.164062 C 162.871094 230.433594 163.277344 229.679688 163.628906 228.894531 C 163.980469 228.109375 164.277344 227.300781 164.515625 226.476562 C 164.753906 225.648438 164.933594 224.808594 165.054688 223.957031 C 165.175781 223.105469 165.238281 222.25 165.238281 221.386719 L 165.238281 200.035156 C 165.238281 199.753906 165.1875 199.488281 165.085938 199.226562 C 164.984375 198.96875 164.839844 198.738281 164.652344 198.53125 C 164.46875 198.324219 164.25 198.160156 164.003906 198.03125 C 163.753906 197.90625 163.492188 197.828125 163.214844 197.796875 C 161.4375 197.695312 159.683594 197.4375 157.953125 197.015625 C 156.222656 196.597656 154.542969 196.027344 152.917969 195.304688 C 151.289062 194.582031 149.738281 193.722656 148.265625 192.71875 C 146.796875 191.71875 145.425781 190.589844 144.15625 189.339844 C 144.050781 189.210938 143.933594 189.089844 143.804688 188.984375 C 143.671875 188.878906 143.53125 188.789062 143.378906 188.71875 C 143.226562 188.644531 143.070312 188.589844 142.902344 188.550781 C 142.738281 188.511719 142.574219 188.496094 142.40625 188.496094 C 142.238281 188.496094 142.070312 188.511719 141.90625 188.550781 C 141.742188 188.589844 141.582031 188.644531 141.433594 188.71875 C 141.28125 188.789062 141.140625 188.878906 141.007812 188.984375 C 140.875 189.089844 140.757812 189.210938 140.652344 189.339844 C 139.382812 190.589844 138.015625 191.714844 136.542969 192.714844 C 135.070312 193.714844 133.519531 194.574219 131.894531 195.292969 C 130.265625 196.011719 128.585938 196.582031 126.855469 196.996094 C 125.125 197.414062 123.371094 197.667969 121.59375 197.769531 C 121.316406 197.796875 121.054688 197.875 120.808594 198.003906 C 120.5625 198.128906 120.34375 198.292969 120.15625 198.5 C 119.96875 198.707031 119.828125 198.9375 119.726562 199.199219 C 119.625 199.457031 119.574219 199.726562 119.570312 200.003906 L 119.570312 221.359375 C 119.570312 222.21875 119.628906 223.078125 119.75 223.933594 C 119.871094 224.789062 120.050781 225.628906 120.289062 226.460938 C 120.53125 227.289062 120.824219 228.097656 121.179688 228.882812 C 121.53125 229.671875 121.9375 230.429688 122.398438 231.160156 C 122.859375 231.890625 123.367188 232.582031 123.925781 233.242188 C 124.484375 233.898438 125.085938 234.515625 125.730469 235.089844 C 126.375 235.664062 127.054688 236.1875 127.773438 236.664062 C 128.492188 237.144531 129.242188 237.566406 130.023438 237.941406 L 132.40625 239.085938 L 117.304688 239.085938 C 117.003906 239.085938 116.714844 239.144531 116.4375 239.261719 C 116.160156 239.375 115.917969 239.539062 115.703125 239.75 C 115.492188 239.964844 115.328125 240.207031 115.210938 240.484375 C 115.097656 240.761719 115.039062 241.050781 115.039062 241.351562 C 115.039062 241.652344 115.097656 241.941406 115.210938 242.21875 C 115.328125 242.496094 115.492188 242.742188 115.703125 242.953125 C 115.917969 243.167969 116.160156 243.332031 116.4375 243.445312 C 116.714844 243.5625 117.003906 243.617188 117.304688 243.617188 L 248.722656 243.617188 C 249.441406 243.617188 250.15625 243.542969 250.859375 243.402344 C 251.566406 243.261719 252.25 243.050781 252.914062 242.777344 C 253.578125 242.5 254.210938 242.160156 254.808594 241.761719 C 255.40625 241.359375 255.960938 240.90625 256.46875 240.398438 C 256.976562 239.890625 257.429688 239.335938 257.832031 238.738281 C 258.230469 238.140625 258.570312 237.507812 258.84375 236.84375 C 259.121094 236.179688 259.332031 235.496094 259.472656 234.792969 C 259.613281 234.085938 259.6875 233.375 259.6875 232.652344 L 259.6875 166.929688 C 259.6875 166.210938 259.613281 165.5 259.472656 164.792969 C 259.332031 164.085938 259.121094 163.402344 258.84375 162.738281 C 258.570312 162.074219 258.230469 161.445312 257.832031 160.84375 C 257.429688 160.246094 256.976562 159.695312 256.46875 159.1875 C 255.960938 158.675781 255.40625 158.222656 254.808594 157.824219 C 254.210938 157.421875 253.578125 157.085938 252.914062 156.808594 C 252.25 156.53125 251.566406 156.324219 250.859375 156.179688 C 250.15625 156.039062 249.441406 155.96875 248.722656 155.964844 Z M 124.222656 202.058594 C 127.570312 201.609375 130.785156 200.695312 133.867188 199.316406 C 136.949219 197.941406 139.777344 196.15625 142.34375 193.960938 C 144.9375 196.171875 147.792969 197.964844 150.90625 199.34375 C 154.023438 200.71875 157.269531 201.625 160.648438 202.058594 L 160.648438 221.386719 C 160.660156 222.699219 160.488281 223.988281 160.136719 225.253906 C 159.785156 226.515625 159.261719 227.707031 158.574219 228.824219 C 157.882812 229.941406 157.054688 230.941406 156.082031 231.824219 C 155.109375 232.707031 154.035156 233.433594 152.855469 234.011719 L 142.34375 238.847656 L 131.953125 234.011719 C 130.78125 233.429688 129.710938 232.699219 128.746094 231.8125 C 127.78125 230.929688 126.957031 229.929688 126.269531 228.8125 C 125.585938 227.695312 125.070312 226.507812 124.722656 225.246094 C 124.375 223.984375 124.207031 222.699219 124.222656 221.386719 Z M 228.578125 155.964844 L 223.140625 155.964844 L 223.140625 146.90625 C 223.140625 146.492188 223.101562 146.085938 223.019531 145.683594 C 222.941406 145.28125 222.820312 144.890625 222.664062 144.511719 C 222.507812 144.132812 222.316406 143.773438 222.085938 143.429688 C 221.859375 143.089844 221.601562 142.773438 221.308594 142.484375 C 221.019531 142.191406 220.703125 141.933594 220.363281 141.707031 C 220.019531 141.476562 219.660156 141.285156 219.28125 141.128906 C 218.902344 140.972656 218.511719 140.851562 218.109375 140.773438 C 217.707031 140.691406 217.300781 140.652344 216.886719 140.652344 L 178.921875 140.652344 C 178.5 140.644531 178.085938 140.679688 177.671875 140.753906 C 177.257812 140.832031 176.855469 140.945312 176.464844 141.105469 C 176.074219 141.261719 175.703125 141.457031 175.351562 141.6875 C 175 141.921875 174.675781 142.183594 174.378906 142.480469 C 174.082031 142.78125 173.816406 143.105469 173.585938 143.457031 C 173.351562 143.804688 173.15625 144.175781 173 144.566406 C 172.84375 144.957031 172.726562 145.359375 172.652344 145.773438 C 172.574219 146.1875 172.539062 146.605469 172.550781 147.027344 L 172.550781 156.085938 L 167.261719 156.085938 L 167.261719 145.515625 C 167.265625 144.882812 167.328125 144.253906 167.453125 143.632812 C 167.578125 143.011719 167.761719 142.40625 168.007812 141.820312 C 168.25 141.234375 168.546875 140.679688 168.902344 140.152344 C 169.253906 139.625 169.65625 139.136719 170.101562 138.691406 C 170.550781 138.242188 171.039062 137.839844 171.566406 137.488281 C 172.09375 137.136719 172.648438 136.835938 173.234375 136.59375 C 173.820312 136.351562 174.421875 136.164062 175.046875 136.039062 C 175.667969 135.914062 176.292969 135.851562 176.929688 135.851562 L 218.882812 135.851562 C 219.515625 135.851562 220.148438 135.910156 220.769531 136.035156 C 221.394531 136.160156 222 136.34375 222.585938 136.585938 C 223.171875 136.828125 223.730469 137.125 224.257812 137.476562 C 224.789062 137.828125 225.277344 138.230469 225.726562 138.679688 C 226.175781 139.128906 226.578125 139.617188 226.933594 140.144531 C 227.289062 140.671875 227.585938 141.226562 227.832031 141.8125 C 228.074219 142.402344 228.261719 143.003906 228.386719 143.628906 C 228.511719 144.25 228.574219 144.878906 228.578125 145.515625 Z M 177.230469 146.90625 C 177.226562 146.675781 177.265625 146.457031 177.351562 146.246094 C 177.433594 146.039062 177.554688 145.851562 177.714844 145.6875 C 177.875 145.527344 178.058594 145.402344 178.269531 145.316406 C 178.476562 145.226562 178.695312 145.183594 178.921875 145.183594 L 216.886719 145.183594 C 217.117188 145.179688 217.339844 145.21875 217.550781 145.304688 C 217.765625 145.390625 217.953125 145.515625 218.113281 145.679688 C 218.277344 145.839844 218.402344 146.027344 218.488281 146.242188 C 218.574219 146.453125 218.613281 146.675781 218.609375 146.90625 L 218.609375 155.964844 L 177.230469 155.964844 Z M 235.164062 183.148438 L 235.164062 187.195312 L 219.546875 187.195312 L 219.546875 183.332031 C 219.546875 183.105469 219.589844 182.886719 219.675781 182.679688 C 219.761719 182.46875 219.882812 182.285156 220.039062 182.125 C 220.199219 181.964844 220.382812 181.835938 220.589844 181.75 C 220.796875 181.660156 221.011719 181.613281 221.238281 181.609375 L 233.320312 181.609375 C 233.558594 181.59375 233.789062 181.625 234.015625 181.703125 C 234.242188 181.785156 234.441406 181.90625 234.617188 182.070312 C 234.789062 182.230469 234.925781 182.421875 235.019531 182.644531 C 235.117188 182.863281 235.164062 183.089844 235.164062 183.332031 Z M 176.292969 183.148438 L 176.292969 187.195312 L 160.679688 187.195312 L 160.679688 183.332031 C 160.679688 183.101562 160.722656 182.882812 160.808594 182.671875 C 160.898438 182.460938 161.023438 182.273438 161.183594 182.113281 C 161.34375 181.953125 161.53125 181.828125 161.742188 181.738281 C 161.953125 181.652344 162.171875 181.609375 162.398438 181.609375 L 174.480469 181.609375 C 174.71875 181.597656 174.945312 181.632812 175.167969 181.714844 C 175.390625 181.796875 175.585938 181.917969 175.757812 182.082031 C 175.929688 182.242188 176.0625 182.433594 176.15625 182.648438 C 176.25 182.867188 176.292969 183.09375 176.292969 183.332031 Z M 176.292969 183.148438 " fill-opacity="1" fill-rule="nonzero"/></g><path fill="#ea7b1f" d="M 248.058594 227.972656 L 248.058594 198.582031 C 248.058594 198.285156 248 197.996094 247.886719 197.71875 C 247.773438 197.4375 247.609375 197.195312 247.394531 196.980469 C 247.183594 196.769531 246.9375 196.605469 246.660156 196.492188 C 246.382812 196.375 246.09375 196.320312 245.792969 196.320312 C 245.492188 196.320312 245.203125 196.375 244.925781 196.492188 C 244.648438 196.605469 244.40625 196.769531 244.191406 196.980469 C 243.980469 197.195312 243.816406 197.4375 243.699219 197.71875 C 243.585938 197.996094 243.527344 198.285156 243.527344 198.582031 L 243.527344 227.972656 C 243.527344 228.273438 243.585938 228.5625 243.699219 228.839844 C 243.816406 229.117188 243.980469 229.363281 244.191406 229.574219 C 244.40625 229.785156 244.648438 229.949219 244.925781 230.066406 C 245.203125 230.179688 245.492188 230.238281 245.792969 230.238281 C 246.09375 230.238281 246.382812 230.179688 246.660156 230.066406 C 246.9375 229.949219 247.183594 229.785156 247.394531 229.574219 C 247.609375 229.363281 247.773438 229.117188 247.886719 228.839844 C 248 228.5625 248.058594 228.273438 248.058594 227.972656 Z M 248.058594 227.972656 " fill-opacity="1" fill-rule="nonzero"/><path fill="#ea7b1f" d="M 135.335938 228.667969 L 141.378906 231.6875 C 142.023438 231.980469 142.667969 231.980469 143.3125 231.6875 L 149.351562 228.667969 C 150.261719 228.214844 151.089844 227.648438 151.839844 226.96875 C 152.589844 226.285156 153.230469 225.511719 153.765625 224.652344 C 154.296875 223.789062 154.703125 222.871094 154.980469 221.894531 C 155.257812 220.917969 155.394531 219.925781 155.394531 218.910156 L 155.394531 207.523438 C 155.390625 207.246094 155.339844 206.972656 155.238281 206.714844 C 155.140625 206.453125 154.996094 206.21875 154.808594 206.007812 C 154.625 205.800781 154.40625 205.632812 154.15625 205.503906 C 153.910156 205.375 153.648438 205.292969 153.371094 205.257812 C 151.632812 205.148438 149.972656 204.734375 148.390625 204.023438 C 146.804688 203.3125 145.390625 202.34375 144.15625 201.121094 C 143.664062 200.597656 143.0625 200.328125 142.34375 200.304688 C 141.628906 200.3125 141.046875 200.597656 140.59375 201.152344 C 139.320312 202.386719 137.867188 203.359375 136.242188 204.066406 C 134.613281 204.773438 132.914062 205.171875 131.140625 205.257812 C 130.863281 205.292969 130.597656 205.375 130.351562 205.503906 C 130.101562 205.632812 129.886719 205.800781 129.699219 206.007812 C 129.511719 206.21875 129.371094 206.453125 129.269531 206.714844 C 129.167969 206.972656 129.117188 207.246094 129.117188 207.523438 L 129.117188 218.910156 C 129.121094 219.933594 129.269531 220.9375 129.558594 221.917969 C 129.851562 222.898438 130.269531 223.824219 130.820312 224.6875 C 131.371094 225.546875 132.03125 226.320312 132.796875 226.996094 C 133.566406 227.671875 134.414062 228.230469 135.335938 228.667969 Z M 133.707031 209.488281 C 136.890625 208.898438 139.773438 207.621094 142.34375 205.652344 C 144.9375 207.625 147.839844 208.902344 151.042969 209.488281 L 151.042969 218.910156 C 151.042969 219.503906 150.957031 220.089844 150.792969 220.660156 C 150.625 221.230469 150.382812 221.765625 150.066406 222.269531 C 149.746094 222.769531 149.367188 223.21875 148.921875 223.613281 C 148.476562 224.007812 147.984375 224.332031 147.449219 224.589844 L 142.34375 227.035156 L 137.242188 224.589844 C 136.710938 224.328125 136.226562 224 135.789062 223.601562 C 135.351562 223.203125 134.976562 222.753906 134.664062 222.253906 C 134.351562 221.753906 134.113281 221.21875 133.953125 220.648438 C 133.789062 220.082031 133.707031 219.503906 133.707031 218.910156 Z M 133.707031 209.488281 " fill-opacity="1" fill-rule="nonzero"/><path fill="#ea7b1f" d="M 203.023438 193.992188 L 192.816406 193.992188 C 192.515625 193.992188 192.226562 194.050781 191.949219 194.164062 C 191.671875 194.28125 191.425781 194.445312 191.214844 194.65625 C 191 194.867188 190.839844 195.113281 190.722656 195.390625 C 190.609375 195.667969 190.550781 195.957031 190.550781 196.257812 L 190.550781 204.714844 L 182.09375 204.714844 C 181.792969 204.714844 181.503906 204.773438 181.226562 204.886719 C 180.949219 205.003906 180.703125 205.167969 180.492188 205.378906 C 180.277344 205.589844 180.117188 205.835938 180 206.113281 C 179.886719 206.390625 179.828125 206.679688 179.828125 206.980469 L 179.828125 217.21875 C 179.828125 217.519531 179.886719 217.808594 180 218.085938 C 180.117188 218.363281 180.277344 218.609375 180.492188 218.820312 C 180.703125 219.035156 180.949219 219.199219 181.226562 219.3125 C 181.503906 219.425781 181.792969 219.484375 182.09375 219.484375 L 190.671875 219.484375 L 190.671875 227.972656 C 190.671875 228.273438 190.730469 228.5625 190.84375 228.839844 C 190.957031 229.117188 191.121094 229.363281 191.335938 229.574219 C 191.546875 229.785156 191.792969 229.949219 192.070312 230.066406 C 192.347656 230.179688 192.636719 230.238281 192.9375 230.238281 L 203.144531 230.238281 C 203.445312 230.234375 203.730469 230.171875 204.007812 230.058594 C 204.285156 229.941406 204.527344 229.777344 204.738281 229.566406 C 204.949219 229.355469 205.113281 229.109375 205.230469 228.835938 C 205.347656 228.558594 205.40625 228.273438 205.410156 227.972656 L 205.410156 219.515625 L 213.867188 219.515625 C 214.167969 219.515625 214.457031 219.457031 214.734375 219.34375 C 215.011719 219.226562 215.257812 219.0625 215.46875 218.851562 C 215.683594 218.640625 215.847656 218.394531 215.960938 218.117188 C 216.074219 217.839844 216.132812 217.550781 216.132812 217.25 L 216.132812 206.980469 C 216.132812 206.679688 216.074219 206.390625 215.960938 206.113281 C 215.847656 205.835938 215.683594 205.589844 215.46875 205.378906 C 215.257812 205.167969 215.011719 205.003906 214.734375 204.886719 C 214.457031 204.773438 214.167969 204.714844 213.867188 204.714844 L 205.410156 204.714844 L 205.410156 196.257812 C 205.40625 195.949219 205.34375 195.652344 205.21875 195.367188 C 205.09375 195.082031 204.921875 194.835938 204.695312 194.621094 C 204.472656 194.410156 204.214844 194.246094 203.925781 194.136719 C 203.632812 194.027344 203.335938 193.980469 203.023438 193.992188 Z M 200.757812 217.21875 L 200.757812 225.675781 L 195.082031 225.675781 L 195.082031 217.21875 C 195.082031 216.917969 195.023438 216.628906 194.910156 216.347656 C 194.792969 216.070312 194.632812 215.820312 194.417969 215.605469 C 194.207031 215.390625 193.960938 215.226562 193.683594 215.109375 C 193.40625 214.988281 193.117188 214.929688 192.816406 214.925781 L 184.359375 214.925781 L 184.359375 209.246094 L 192.816406 209.246094 C 193.117188 209.246094 193.40625 209.1875 193.683594 209.074219 C 193.960938 208.957031 194.207031 208.792969 194.417969 208.582031 C 194.628906 208.371094 194.792969 208.125 194.910156 207.847656 C 195.023438 207.570312 195.082031 207.28125 195.082031 206.980469 L 195.082031 198.523438 L 200.757812 198.523438 L 200.757812 206.980469 C 200.757812 207.28125 200.816406 207.570312 200.933594 207.847656 C 201.046875 208.125 201.210938 208.371094 201.421875 208.582031 C 201.636719 208.792969 201.878906 208.957031 202.15625 209.074219 C 202.433594 209.1875 202.722656 209.246094 203.023438 209.246094 L 211.480469 209.246094 L 211.480469 214.925781 L 203.023438 214.925781 C 202.722656 214.929688 202.433594 214.988281 202.15625 215.109375 C 201.878906 215.226562 201.632812 215.390625 201.421875 215.605469 C 201.210938 215.820312 201.046875 216.070312 200.929688 216.347656 C 200.816406 216.628906 200.757812 216.917969 200.757812 217.21875 Z M 200.757812 217.21875 " fill-opacity="1" fill-rule="nonzero"/></svg>