<svg xmlns="http://www.w3.org/2000/svg" xmlns:xlink="http://www.w3.org/1999/xlink" zoomAndPan="magnify" preserveAspectRatio="xMidYMid meet" version="1.0" viewBox="114.66 153.54 145.69 68.25"><defs><clipPath id="7ce58108a4"><path d="M 114.65625 153.535156 L 260.15625 153.535156 L 260.15625 221.785156 L 114.65625 221.785156 Z M 114.65625 153.535156 " clip-rule="nonzero"/></clipPath></defs><path fill="#ffffff" d="M 255.902344 155.042969 L 212.632812 155.042969 C 212.28125 156.769531 210.75 158.074219 208.921875 158.074219 C 207.09375 158.074219 205.5625 156.769531 205.210938 155.042969 L 119.097656 155.042969 C 117.480469 155.042969 116.160156 156.359375 116.160156 157.976562 L 116.160156 217.015625 C 116.160156 218.632812 117.480469 219.949219 119.097656 219.949219 L 205.210938 219.949219 C 205.5625 218.222656 207.09375 216.917969 208.921875 216.917969 C 210.75 216.917969 212.28125 218.222656 212.632812 219.949219 L 255.902344 219.949219 C 257.519531 219.949219 258.839844 218.632812 258.839844 217.015625 L 258.839844 157.976562 C 258.839844 156.359375 257.519531 155.042969 255.902344 155.042969 Z M 179.757812 169.09375 L 179.285156 171.609375 C 179.101562 172.589844 178.769531 173.53125 178.292969 174.40625 C 177.816406 175.28125 177.207031 176.074219 176.488281 176.757812 L 167.316406 185.472656 L 173.148438 204.917969 C 173.28125 205.359375 173.230469 205.84375 173.003906 206.25 L 171.550781 208.867188 C 171.253906 209.398438 170.714844 209.730469 170.109375 209.753906 C 169.503906 209.777344 168.941406 209.488281 168.609375 208.980469 L 158.707031 193.933594 L 149.65625 201.726562 L 151.839844 207.308594 C 152.089844 207.945312 151.9375 208.667969 151.453125 209.152344 L 148.96875 211.636719 C 148.640625 211.964844 148.210938 212.140625 147.757812 212.140625 C 147.675781 212.140625 147.597656 212.136719 147.519531 212.125 C 146.980469 212.050781 146.519531 211.738281 146.253906 211.265625 L 143.277344 206.003906 L 139.050781 206.605469 C 138.511719 206.683594 137.980469 206.503906 137.59375 206.117188 C 137.207031 205.730469 137.03125 205.199219 137.105469 204.660156 L 137.707031 200.433594 L 132.445312 197.460938 C 131.972656 197.191406 131.660156 196.730469 131.585938 196.191406 C 131.511719 195.65625 131.691406 195.128906 132.074219 194.742188 L 134.558594 192.257812 C 135.042969 191.773438 135.769531 191.625 136.40625 191.871094 L 141.984375 194.054688 L 149.777344 185.003906 L 134.734375 175.105469 C 134.226562 174.769531 133.9375 174.207031 133.960938 173.601562 C 133.980469 172.996094 134.3125 172.457031 134.84375 172.160156 L 137.464844 170.707031 C 137.867188 170.480469 138.351562 170.429688 138.792969 170.5625 L 158.242188 176.398438 L 166.953125 167.226562 C 167.640625 166.503906 168.429688 165.894531 169.304688 165.417969 C 170.183594 164.941406 171.121094 164.609375 172.101562 164.425781 L 174.617188 163.953125 C 175.34375 163.816406 176.09375 163.863281 176.785156 164.089844 C 177.441406 164.304688 178.050781 164.675781 178.542969 165.167969 C 179.035156 165.660156 179.410156 166.269531 179.621094 166.925781 C 179.847656 167.621094 179.894531 168.367188 179.757812 169.09375 Z M 209.925781 212.628906 C 209.925781 213.183594 209.476562 213.632812 208.921875 213.632812 C 208.367188 213.632812 207.917969 213.183594 207.917969 212.628906 L 207.917969 209.871094 C 207.917969 209.316406 208.367188 208.867188 208.921875 208.867188 C 209.476562 208.867188 209.925781 209.316406 209.925781 209.871094 Z M 209.925781 204.996094 C 209.925781 205.550781 209.476562 206 208.921875 206 C 208.367188 206 207.917969 205.550781 207.917969 204.996094 L 207.917969 200.121094 C 207.917969 199.566406 208.367188 199.117188 208.921875 199.117188 C 209.476562 199.117188 209.925781 199.566406 209.925781 200.121094 Z M 209.925781 195.25 C 209.925781 195.804688 209.476562 196.253906 208.921875 196.253906 C 208.367188 196.253906 207.917969 195.804688 207.917969 195.25 L 207.917969 190.375 C 207.917969 189.820312 208.367188 189.371094 208.921875 189.371094 C 209.476562 189.371094 209.925781 189.820312 209.925781 190.375 Z M 209.925781 185.5 C 209.925781 186.054688 209.476562 186.503906 208.921875 186.503906 C 208.367188 186.503906 207.917969 186.054688 207.917969 185.5 L 207.917969 180.628906 C 207.917969 180.074219 208.367188 179.625 208.921875 179.625 C 209.476562 179.625 209.925781 180.074219 209.925781 180.628906 Z M 209.925781 175.753906 C 209.925781 176.308594 209.476562 176.757812 208.921875 176.757812 C 208.367188 176.757812 207.917969 176.308594 207.917969 175.753906 L 207.917969 170.878906 C 207.917969 170.324219 208.367188 169.875 208.921875 169.875 C 209.476562 169.875 209.925781 170.324219 209.925781 170.878906 Z M 209.925781 166.007812 C 209.925781 166.558594 209.476562 167.007812 208.921875 167.007812 C 208.367188 167.007812 207.917969 166.558594 207.917969 166.007812 L 207.917969 163.246094 C 207.917969 162.691406 208.367188 162.242188 208.921875 162.242188 C 209.476562 162.242188 209.925781 162.691406 209.925781 163.246094 Z M 249.421875 212.089844 L 227.921875 212.089844 L 227.921875 210.207031 L 249.421875 210.207031 Z M 249.421875 208.667969 L 227.921875 208.667969 L 227.921875 207.484375 L 249.421875 207.484375 Z M 249.421875 206.152344 L 227.921875 206.152344 L 227.921875 203.851562 L 249.421875 203.851562 Z M 249.421875 202.398438 L 227.921875 202.398438 L 227.921875 201.457031 L 249.421875 201.457031 Z M 249.421875 199.640625 L 227.921875 199.640625 L 227.921875 198.070312 L 249.421875 198.070312 Z M 249.421875 197.355469 L 227.921875 197.355469 L 227.921875 194.207031 L 249.421875 194.207031 Z M 249.421875 193.496094 L 227.921875 193.496094 L 227.921875 191.921875 L 249.421875 191.921875 Z M 249.421875 191.207031 L 227.921875 191.207031 L 227.921875 188.0625 L 249.421875 188.0625 Z M 249.421875 187.277344 L 227.921875 187.277344 L 227.921875 185.394531 L 249.421875 185.394531 Z M 249.421875 183.855469 L 227.921875 183.855469 L 227.921875 182.667969 L 249.421875 182.667969 Z M 249.421875 181.335938 L 227.921875 181.335938 L 227.921875 179.039062 L 249.421875 179.039062 Z M 249.421875 177.585938 L 227.921875 177.585938 L 227.921875 176.644531 L 249.421875 176.644531 Z M 249.421875 174.828125 L 227.921875 174.828125 L 227.921875 173.253906 L 249.421875 173.253906 Z M 249.421875 172.539062 L 227.921875 172.539062 L 227.921875 169.394531 L 249.421875 169.394531 Z M 249.421875 168.679688 L 227.921875 168.679688 L 227.921875 167.105469 L 249.421875 167.105469 Z M 249.421875 166.394531 L 227.921875 166.394531 L 227.921875 163.246094 L 249.421875 163.246094 Z M 177.125 166.589844 C 177.691406 167.15625 177.933594 167.9375 177.785156 168.726562 L 177.3125 171.242188 C 177.019531 172.804688 176.257812 174.207031 175.105469 175.304688 L 165.039062 184.867188 L 171.191406 205.378906 L 170.023438 207.480469 L 159.128906 190.921875 L 147.269531 201.132812 L 149.902344 207.863281 L 147.816406 209.953125 L 144.351562 203.824219 L 139.148438 204.5625 L 139.886719 199.359375 L 133.761719 195.898438 L 135.847656 193.808594 L 142.578125 196.445312 L 152.789062 184.585938 L 136.230469 173.6875 L 138.332031 172.519531 L 158.847656 178.675781 L 168.410156 168.609375 C 169.503906 167.457031 170.910156 166.691406 172.472656 166.398438 L 174.984375 165.925781 C 175.777344 165.777344 176.554688 166.019531 177.125 166.589844 Z M 177.125 166.589844 " fill-opacity="1" fill-rule="nonzero"/><g clip-path="url(#7ce58108a4)"><path fill="#ea7b1f" d="M 255.902344 153.535156 L 211.203125 153.535156 L 211.203125 154.289062 C 211.203125 155.546875 210.179688 156.570312 208.921875 156.570312 C 207.664062 156.570312 206.640625 155.546875 206.640625 154.289062 L 206.640625 153.535156 L 119.097656 153.535156 C 116.648438 153.535156 114.65625 155.527344 114.65625 157.976562 L 114.65625 217.015625 C 114.65625 219.464844 116.648438 221.457031 119.097656 221.457031 L 206.640625 221.457031 L 206.640625 220.703125 C 206.640625 219.445312 207.664062 218.421875 208.921875 218.421875 C 210.179688 218.421875 211.203125 219.445312 211.203125 220.703125 L 211.203125 221.457031 L 255.902344 221.457031 C 258.351562 221.457031 260.34375 219.464844 260.34375 217.015625 L 260.34375 157.976562 C 260.34375 155.527344 258.351562 153.535156 255.902344 153.535156 Z M 258.839844 217.015625 C 258.839844 218.632812 257.519531 219.949219 255.902344 219.949219 L 212.632812 219.949219 C 212.28125 218.222656 210.75 216.917969 208.921875 216.917969 C 207.09375 216.917969 205.5625 218.222656 205.210938 219.949219 L 119.097656 219.949219 C 117.480469 219.949219 116.160156 218.632812 116.160156 217.015625 L 116.160156 157.976562 C 116.160156 156.359375 117.480469 155.042969 119.097656 155.042969 L 205.210938 155.042969 C 205.5625 156.769531 207.09375 158.074219 208.921875 158.074219 C 210.75 158.074219 212.28125 156.769531 212.632812 155.042969 L 255.902344 155.042969 C 257.519531 155.042969 258.839844 156.359375 258.839844 157.976562 Z M 209.925781 163.246094 L 209.925781 166.007812 C 209.925781 166.558594 209.476562 167.007812 208.921875 167.007812 C 208.367188 167.007812 207.917969 166.558594 207.917969 166.007812 L 207.917969 163.246094 C 207.917969 162.691406 208.367188 162.242188 208.921875 162.242188 C 209.476562 162.242188 209.925781 162.691406 209.925781 163.246094 Z M 209.925781 180.628906 L 209.925781 185.5 C 209.925781 186.054688 209.476562 186.503906 208.921875 186.503906 C 208.367188 186.503906 207.917969 186.054688 207.917969 185.5 L 207.917969 180.628906 C 207.917969 180.074219 208.367188 179.625 208.921875 179.625 C 209.476562 179.625 209.925781 180.074219 209.925781 180.628906 Z M 209.925781 170.878906 L 209.925781 175.753906 C 209.925781 176.308594 209.476562 176.757812 208.921875 176.757812 C 208.367188 176.757812 207.917969 176.308594 207.917969 175.753906 L 207.917969 170.878906 C 207.917969 170.324219 208.367188 169.875 208.921875 169.875 C 209.476562 169.875 209.925781 170.324219 209.925781 170.878906 Z M 209.925781 190.375 L 209.925781 195.25 C 209.925781 195.804688 209.476562 196.253906 208.921875 196.253906 C 208.367188 196.253906 207.917969 195.804688 207.917969 195.25 L 207.917969 190.375 C 207.917969 189.820312 208.367188 189.371094 208.921875 189.371094 C 209.476562 189.371094 209.925781 189.820312 209.925781 190.375 Z M 209.925781 200.121094 L 209.925781 204.996094 C 209.925781 205.550781 209.476562 206 208.921875 206 C 208.367188 206 207.917969 205.550781 207.917969 204.996094 L 207.917969 200.121094 C 207.917969 199.566406 208.367188 199.117188 208.921875 199.117188 C 209.476562 199.117188 209.925781 199.566406 209.925781 200.121094 Z M 209.925781 209.871094 L 209.925781 212.628906 C 209.925781 213.183594 209.476562 213.632812 208.921875 213.632812 C 208.367188 213.632812 207.917969 213.183594 207.917969 212.628906 L 207.917969 209.871094 C 207.917969 209.316406 208.367188 208.867188 208.921875 208.867188 C 209.476562 208.867188 209.925781 209.316406 209.925781 209.871094 Z M 227.921875 207.484375 L 249.421875 207.484375 L 249.421875 208.667969 L 227.921875 208.667969 Z M 227.921875 206.152344 L 249.421875 206.152344 L 249.421875 203.851562 L 227.921875 203.851562 Z M 179.621094 166.925781 C 179.847656 167.617188 179.894531 168.367188 179.757812 169.09375 L 179.285156 171.609375 C 179.101562 172.589844 178.769531 173.53125 178.292969 174.40625 C 177.816406 175.28125 177.207031 176.074219 176.488281 176.757812 L 167.316406 185.472656 L 173.148438 204.917969 C 173.28125 205.359375 173.230469 205.84375 173.003906 206.25 L 171.550781 208.867188 C 171.253906 209.398438 170.714844 209.730469 170.109375 209.753906 C 169.503906 209.777344 168.941406 209.488281 168.609375 208.980469 L 158.707031 193.933594 L 149.65625 201.726562 L 151.839844 207.308594 C 152.089844 207.945312 151.9375 208.667969 151.453125 209.152344 L 148.96875 211.636719 C 148.640625 211.964844 148.210938 212.140625 147.757812 212.140625 C 147.675781 212.140625 147.597656 212.136719 147.519531 212.125 C 146.980469 212.050781 146.519531 211.738281 146.253906 211.265625 L 143.277344 206.003906 L 139.050781 206.605469 C 138.511719 206.683594 137.980469 206.503906 137.59375 206.117188 C 137.207031 205.730469 137.03125 205.199219 137.105469 204.660156 L 137.707031 200.433594 L 132.445312 197.460938 C 131.972656 197.191406 131.660156 196.730469 131.585938 196.191406 C 131.511719 195.65625 131.691406 195.128906 132.074219 194.742188 L 134.558594 192.257812 C 135.042969 191.773438 135.769531 191.625 136.40625 191.871094 L 141.984375 194.054688 L 149.777344 185.003906 L 134.734375 175.105469 C 134.226562 174.769531 133.9375 174.207031 133.960938 173.601562 C 133.980469 172.996094 134.3125 172.457031 134.84375 172.160156 L 137.464844 170.707031 C 137.867188 170.480469 138.351562 170.429688 138.792969 170.5625 L 158.242188 176.398438 L 166.953125 167.226562 C 167.640625 166.503906 168.429688 165.894531 169.304688 165.417969 C 170.183594 164.941406 171.121094 164.609375 172.101562 164.425781 L 174.617188 163.953125 C 175.34375 163.816406 176.09375 163.863281 176.785156 164.089844 C 177.441406 164.304688 178.050781 164.675781 178.542969 165.167969 C 179.035156 165.660156 179.410156 166.269531 179.621094 166.925781 Z M 177.125 166.589844 C 176.554688 166.019531 175.777344 165.777344 174.984375 165.925781 L 172.472656 166.398438 C 170.910156 166.691406 169.503906 167.457031 168.410156 168.609375 L 158.847656 178.675781 L 138.332031 172.519531 L 136.230469 173.6875 L 152.789062 184.585938 L 142.578125 196.445312 L 135.847656 193.808594 L 133.761719 195.898438 L 139.886719 199.359375 L 139.148438 204.5625 L 144.351562 203.824219 L 147.816406 209.953125 L 149.902344 207.863281 L 147.269531 201.132812 L 159.128906 190.921875 L 170.023438 207.480469 L 171.191406 205.378906 L 165.039062 184.867188 L 175.105469 175.304688 C 176.257812 174.207031 177.019531 172.804688 177.3125 171.242188 L 177.785156 168.726562 C 177.933594 167.9375 177.691406 167.15625 177.125 166.589844 Z M 227.921875 212.089844 L 249.421875 212.089844 L 249.421875 210.207031 L 227.921875 210.207031 Z M 227.921875 202.398438 L 249.421875 202.398438 L 249.421875 201.457031 L 227.921875 201.457031 Z M 227.921875 166.394531 L 249.421875 166.394531 L 249.421875 163.246094 L 227.921875 163.246094 Z M 227.921875 199.640625 L 249.421875 199.640625 L 249.421875 198.070312 L 227.921875 198.070312 Z M 227.921875 181.335938 L 249.421875 181.335938 L 249.421875 179.039062 L 227.921875 179.039062 Z M 227.921875 174.828125 L 249.421875 174.828125 L 249.421875 173.253906 L 227.921875 173.253906 Z M 227.921875 168.679688 L 249.421875 168.679688 L 249.421875 167.105469 L 227.921875 167.105469 Z M 227.921875 172.539062 L 249.421875 172.539062 L 249.421875 169.394531 L 227.921875 169.394531 Z M 227.921875 177.585938 L 249.421875 177.585938 L 249.421875 176.644531 L 227.921875 176.644531 Z M 227.921875 183.855469 L 249.421875 183.855469 L 249.421875 182.667969 L 227.921875 182.667969 Z M 227.921875 193.496094 L 249.421875 193.496094 L 249.421875 191.921875 L 227.921875 191.921875 Z M 227.921875 197.355469 L 249.421875 197.355469 L 249.421875 194.207031 L 227.921875 194.207031 Z M 227.921875 187.277344 L 249.421875 187.277344 L 249.421875 185.394531 L 227.921875 185.394531 Z M 227.921875 191.207031 L 249.421875 191.207031 L 249.421875 188.0625 L 227.921875 188.0625 Z M 227.921875 191.207031 " fill-opacity="1" fill-rule="nonzero"/></g></svg>