<svg xmlns="http://www.w3.org/2000/svg" width="21.048" height="29.25" viewBox="0 0 21.048 29.25">
  <path id="Path_76" data-name="Path 76" d="M169.066,130.965a1.482,1.482,0,1,0,0-2.965H150.982a1.482,1.482,0,1,0,0,2.965h6.226a4.454,4.454,0,0,1,4.192,2.965H150.982a1.482,1.482,0,1,0,0,2.965H161.4a4.454,4.454,0,0,1-4.192,2.965h-6.127a1.482,1.482,0,0,0-1.13,2.442L162.2,156.728a1.482,1.482,0,1,0,2.26-1.919l-10.179-11.986h2.923a7.424,7.424,0,0,0,7.262-5.929h4.6a1.482,1.482,0,0,0,0-2.965h-4.6a7.382,7.382,0,0,0-1.337-2.965h5.933Z" transform="translate(-149.5 -128)"/>
</svg>
