<svg xmlns="http://www.w3.org/2000/svg" xmlns:xlink="http://www.w3.org/1999/xlink" zoomAndPan="magnify" preserveAspectRatio="xMidYMid meet" version="1.0" viewBox="114.66 114.66 145.69 145.69"><defs><clipPath id="cd99499459"><path d="M 114.65625 114.65625 L 260.15625 114.65625 L 260.15625 260.15625 L 114.65625 260.15625 Z M 114.65625 114.65625 " clip-rule="nonzero"/></clipPath></defs><g clip-path="url(#cd99499459)"><path fill="#ea7b1f" d="M 155.523438 210.460938 L 134.359375 210.460938 C 133.359375 210.460938 132.546875 211.277344 132.546875 212.277344 L 132.546875 225.15625 C 132.546875 226.15625 133.359375 226.96875 134.359375 226.96875 L 155.527344 226.96875 C 156.527344 226.96875 157.339844 226.15625 157.339844 225.15625 L 157.339844 212.277344 C 157.335938 211.273438 156.527344 210.460938 155.523438 210.460938 Z M 153.710938 223.339844 L 136.175781 223.339844 L 136.175781 214.089844 L 153.714844 214.089844 L 153.714844 223.339844 Z M 172.894531 202.398438 C 173.894531 202.398438 174.707031 201.585938 174.707031 200.585938 L 174.707031 186.316406 C 174.707031 185.316406 173.894531 184.503906 172.894531 184.503906 L 158.625 184.503906 C 157.625 184.503906 156.8125 185.316406 156.8125 186.316406 L 156.8125 200.585938 C 156.8125 201.585938 157.625 202.398438 158.625 202.398438 Z M 160.441406 188.132812 L 171.085938 188.132812 L 171.085938 198.769531 L 160.441406 198.769531 Z M 134.972656 202.398438 L 149.242188 202.398438 C 150.242188 202.398438 151.054688 201.585938 151.054688 200.585938 L 151.054688 186.316406 C 151.054688 185.316406 150.242188 184.503906 149.242188 184.503906 L 134.972656 184.503906 C 133.96875 184.503906 133.15625 185.316406 133.15625 186.316406 L 133.15625 200.585938 C 133.15625 201.585938 133.96875 202.398438 134.972656 202.398438 Z M 136.785156 188.132812 L 147.425781 188.132812 L 147.425781 198.769531 L 136.785156 198.769531 Z M 205.9375 180.078125 L 220.207031 180.078125 C 221.207031 180.078125 222.019531 179.265625 222.019531 178.265625 L 222.019531 164 C 222.019531 163 221.207031 162.1875 220.207031 162.1875 L 205.9375 162.1875 C 204.9375 162.1875 204.125 163 204.125 164 L 204.125 178.265625 C 204.125 179.269531 204.9375 180.078125 205.9375 180.078125 Z M 207.75 165.8125 L 218.394531 165.8125 L 218.394531 176.453125 L 207.75 176.453125 Z M 182.28125 180.078125 L 196.550781 180.078125 C 197.554688 180.078125 198.367188 179.265625 198.367188 178.265625 L 198.367188 164 C 198.367188 163 197.554688 162.1875 196.550781 162.1875 L 182.28125 162.1875 C 181.28125 162.1875 180.46875 163 180.46875 164 L 180.46875 178.265625 C 180.46875 179.269531 181.28125 180.078125 182.28125 180.078125 Z M 184.097656 165.8125 L 194.738281 165.8125 L 194.738281 176.453125 L 184.097656 176.453125 Z M 158.628906 180.078125 L 172.898438 180.078125 C 173.898438 180.078125 174.710938 179.265625 174.710938 178.265625 L 174.710938 164 C 174.710938 163 173.898438 162.1875 172.898438 162.1875 L 158.628906 162.1875 C 157.628906 162.1875 156.816406 163 156.816406 164 L 156.816406 178.265625 C 156.816406 179.269531 157.625 180.078125 158.628906 180.078125 Z M 160.441406 165.8125 L 171.085938 165.8125 L 171.085938 176.453125 L 160.441406 176.453125 Z M 134.972656 180.078125 L 149.242188 180.078125 C 150.242188 180.078125 151.054688 179.265625 151.054688 178.265625 L 151.054688 164 C 151.054688 163 150.242188 162.1875 149.242188 162.1875 L 134.972656 162.1875 C 133.96875 162.1875 133.15625 163 133.15625 164 L 133.15625 178.265625 C 133.15625 179.269531 133.96875 180.078125 134.972656 180.078125 Z M 136.785156 165.8125 L 147.425781 165.8125 L 147.425781 176.453125 L 136.785156 176.453125 Z M 155.488281 123.933594 L 155.488281 135.984375 C 155.488281 136.984375 154.675781 137.796875 153.675781 137.796875 C 152.675781 137.796875 151.859375 136.984375 151.859375 135.984375 L 151.859375 131.773438 L 146.5625 131.773438 L 146.5625 135.984375 C 146.5625 136.984375 145.75 137.796875 144.75 137.796875 C 143.75 137.796875 142.933594 136.984375 142.933594 135.984375 L 142.933594 123.933594 C 142.933594 122.933594 143.75 122.121094 144.75 122.121094 C 145.75 122.121094 146.5625 122.933594 146.5625 123.933594 L 146.5625 128.144531 L 151.859375 128.144531 L 151.859375 123.933594 C 151.859375 122.933594 152.675781 122.121094 153.675781 122.121094 C 154.675781 122.121094 155.488281 122.933594 155.488281 123.933594 Z M 165.351562 122.121094 C 161.332031 122.121094 158.066406 125.390625 158.066406 129.40625 L 158.066406 130.507812 C 158.066406 134.527344 161.332031 137.792969 165.351562 137.792969 C 169.367188 137.792969 172.636719 134.527344 172.636719 130.507812 L 172.636719 129.40625 C 172.636719 125.390625 169.367188 122.121094 165.351562 122.121094 Z M 169.011719 130.507812 C 169.011719 132.527344 167.371094 134.167969 165.355469 134.167969 C 163.335938 134.167969 161.695312 132.527344 161.695312 130.507812 L 161.695312 129.40625 C 161.695312 127.390625 163.335938 125.75 165.355469 125.75 C 167.371094 125.75 169.011719 127.390625 169.011719 129.40625 Z M 185.753906 123.933594 C 185.753906 124.9375 184.941406 125.75 183.9375 125.75 L 181.289062 125.75 L 181.289062 135.984375 C 181.289062 136.984375 180.476562 137.796875 179.476562 137.796875 C 178.476562 137.796875 177.660156 136.984375 177.660156 135.984375 L 177.660156 125.75 L 175.011719 125.75 C 174.011719 125.75 173.195312 124.9375 173.195312 123.933594 C 173.195312 122.933594 174.011719 122.121094 175.011719 122.121094 L 183.9375 122.121094 C 184.941406 122.121094 185.753906 122.933594 185.753906 123.933594 Z M 191.957031 125.75 L 191.957031 128.144531 L 195.3125 128.144531 C 196.3125 128.144531 197.125 128.960938 197.125 129.960938 C 197.125 130.960938 196.3125 131.773438 195.3125 131.773438 L 191.957031 131.773438 L 191.957031 134.167969 L 196.640625 134.167969 C 197.640625 134.167969 198.453125 134.984375 198.453125 135.984375 C 198.453125 136.984375 197.640625 137.796875 196.640625 137.796875 L 190.144531 137.796875 C 189.144531 137.796875 188.332031 136.984375 188.332031 135.984375 L 188.332031 123.933594 C 188.332031 122.933594 189.144531 122.121094 190.144531 122.121094 L 196.640625 122.121094 C 197.640625 122.121094 198.453125 122.933594 198.453125 123.933594 C 198.453125 124.9375 197.640625 125.75 196.640625 125.75 Z M 212.246094 135.984375 C 212.246094 136.984375 211.433594 137.796875 210.433594 137.796875 L 203.539062 137.796875 C 202.539062 137.796875 201.722656 136.984375 201.722656 135.984375 L 201.722656 123.933594 C 201.722656 122.933594 202.539062 122.121094 203.539062 122.121094 C 204.539062 122.121094 205.351562 122.933594 205.351562 123.933594 L 205.351562 134.167969 L 210.433594 134.167969 C 211.433594 134.167969 212.246094 134.980469 212.246094 135.984375 Z M 231.125 183.027344 L 231.125 154.121094 L 234.28125 154.121094 C 237.722656 154.121094 240.523438 151.320312 240.523438 147.878906 C 240.523438 144.433594 237.722656 141.632812 234.28125 141.632812 L 223.292969 141.632812 L 223.292969 116.46875 C 223.292969 115.46875 222.480469 114.65625 221.480469 114.65625 L 133.699219 114.65625 C 132.699219 114.65625 131.886719 115.46875 131.886719 116.46875 L 131.886719 141.636719 L 120.902344 141.636719 C 117.457031 141.636719 114.65625 144.4375 114.65625 147.878906 C 114.65625 151.324219 117.457031 154.125 120.902344 154.125 L 124.054688 154.125 L 124.054688 239.617188 L 120.902344 239.617188 C 117.457031 239.617188 114.65625 242.421875 114.65625 245.863281 C 114.65625 249.304688 117.457031 252.105469 120.902344 252.105469 L 196.976562 252.105469 C 203.628906 257.269531 211.976562 260.347656 221.027344 260.347656 C 242.707031 260.34375 260.34375 242.707031 260.34375 221.027344 C 260.34375 202.835938 247.925781 187.496094 231.125 183.027344 Z M 252.316406 222.839844 L 256.671875 222.839844 C 256.246094 231.316406 252.847656 239.023438 247.5 244.933594 L 244.433594 241.867188 C 243.726562 241.160156 242.578125 241.160156 241.867188 241.867188 C 241.160156 242.574219 241.160156 243.722656 241.867188 244.433594 L 244.933594 247.5 C 239.023438 252.847656 231.316406 256.246094 222.839844 256.671875 L 222.839844 252.316406 C 222.839844 251.316406 222.027344 250.503906 221.027344 250.503906 C 220.027344 250.503906 219.210938 251.316406 219.210938 252.316406 L 219.210938 256.671875 C 210.738281 256.246094 203.03125 252.847656 197.117188 247.5 L 200.1875 244.433594 C 200.894531 243.726562 200.894531 242.578125 200.1875 241.867188 C 199.476562 241.160156 198.328125 241.160156 197.621094 241.867188 L 194.550781 244.933594 C 189.203125 239.023438 185.808594 231.316406 185.382812 222.839844 L 189.738281 222.839844 C 190.738281 222.839844 191.550781 222.027344 191.550781 221.027344 C 191.550781 220.027344 190.738281 219.210938 189.738281 219.210938 L 185.382812 219.210938 C 185.808594 210.738281 189.207031 203.03125 194.554688 197.117188 L 197.621094 200.1875 C 197.976562 200.539062 198.441406 200.71875 198.902344 200.71875 C 199.367188 200.71875 199.832031 200.539062 200.1875 200.1875 C 200.894531 199.476562 200.894531 198.328125 200.1875 197.621094 L 197.117188 194.550781 C 203.03125 189.203125 210.738281 185.808594 219.210938 185.382812 L 219.210938 189.738281 C 219.210938 190.738281 220.027344 191.550781 221.027344 191.550781 C 222.027344 191.550781 222.839844 190.738281 222.839844 189.738281 L 222.839844 185.382812 C 231.316406 185.808594 239.023438 189.207031 244.933594 194.554688 L 241.867188 197.621094 C 241.160156 198.328125 241.160156 199.476562 241.867188 200.1875 C 242.21875 200.542969 242.6875 200.71875 243.148438 200.71875 C 243.609375 200.71875 244.078125 200.542969 244.429688 200.1875 L 247.496094 197.121094 C 252.84375 203.03125 256.242188 210.742188 256.667969 219.214844 L 252.3125 219.214844 C 251.3125 219.214844 250.5 220.027344 250.5 221.027344 C 250.5 222.03125 251.316406 222.839844 252.316406 222.839844 Z M 181.710938 221.027344 C 181.710938 227.746094 183.40625 234.078125 186.390625 239.613281 L 165.832031 239.613281 L 165.832031 214.085938 L 182.324219 214.085938 C 181.921875 216.339844 181.710938 218.660156 181.710938 221.027344 Z M 194.734375 191.820312 C 192.441406 193.890625 190.394531 196.222656 188.636719 198.769531 L 184.097656 198.769531 L 184.097656 188.132812 L 194.738281 188.132812 L 194.738281 191.820312 Z M 135.511719 118.285156 L 219.664062 118.285156 L 219.664062 141.636719 L 135.511719 141.636719 Z M 118.285156 147.878906 C 118.285156 146.433594 119.457031 145.257812 120.902344 145.257812 L 234.277344 145.257812 C 235.71875 145.257812 236.894531 146.433594 236.894531 147.878906 C 236.894531 149.320312 235.722656 150.496094 234.277344 150.496094 L 120.902344 150.496094 C 119.457031 150.496094 118.285156 149.320312 118.285156 147.878906 Z M 127.679688 154.121094 L 227.496094 154.121094 L 227.496094 182.246094 C 225.390625 181.894531 223.230469 181.710938 221.027344 181.710938 C 212.59375 181.710938 204.769531 184.378906 198.363281 188.917969 L 198.363281 186.316406 C 198.363281 185.316406 197.550781 184.5 196.550781 184.5 L 182.28125 184.5 C 181.28125 184.5 180.464844 185.316406 180.464844 186.316406 L 180.464844 200.582031 C 180.464844 201.582031 181.28125 202.394531 182.28125 202.394531 L 186.410156 202.394531 C 185.042969 204.929688 183.945312 207.628906 183.152344 210.460938 L 164.015625 210.460938 C 163.015625 210.460938 162.199219 211.273438 162.199219 212.273438 L 162.199219 239.613281 L 127.679688 239.613281 Z M 118.285156 245.859375 C 118.285156 244.417969 119.457031 243.242188 120.902344 243.242188 L 188.609375 243.242188 C 189.894531 245.109375 191.332031 246.859375 192.910156 248.472656 L 120.902344 248.472656 C 119.457031 248.476562 118.285156 247.304688 118.285156 245.859375 Z M 230.382812 209.109375 L 223.726562 215.765625 C 222.914062 215.351562 222 215.109375 221.027344 215.109375 C 220.058594 215.109375 219.144531 215.351562 218.332031 215.765625 L 205.875 203.308594 C 205.167969 202.601562 204.019531 202.601562 203.308594 203.308594 C 202.597656 204.015625 202.601562 205.164062 203.308594 205.875 L 215.765625 218.332031 C 215.351562 219.144531 215.109375 220.058594 215.109375 221.027344 C 215.109375 224.289062 217.765625 226.949219 221.027344 226.949219 C 224.289062 226.949219 226.949219 224.292969 226.949219 221.027344 C 226.949219 220.058594 226.707031 219.144531 226.292969 218.332031 L 232.945312 211.675781 C 233.65625 210.96875 233.65625 209.820312 232.945312 209.109375 C 232.238281 208.402344 231.089844 208.402344 230.382812 209.109375 Z M 221.027344 223.316406 C 219.765625 223.316406 218.738281 222.289062 218.738281 221.027344 C 218.738281 219.761719 219.765625 218.734375 221.027344 218.734375 C 222.292969 218.734375 223.320312 219.761719 223.320312 221.027344 C 223.316406 222.289062 222.289062 223.316406 221.027344 223.316406 Z M 221.027344 223.316406 " fill-opacity="1" fill-rule="nonzero"/></g></svg>