<svg xmlns="http://www.w3.org/2000/svg" xmlns:xlink="http://www.w3.org/1999/xlink" zoomAndPan="magnify" preserveAspectRatio="xMidYMid meet" version="1.0" viewBox="116.96 137.94 143.2 98.6"><defs><clipPath id="520c5248ac"><path d="M 185 154 L 260.15625 154 L 260.15625 220 L 185 220 Z M 185 154 " clip-rule="nonzero"/></clipPath></defs><path fill="#ea7b1f" d="M 159.773438 174.609375 C 156.996094 173.222656 155.003906 176.167969 156.824219 179.21875 C 156.871094 179.214844 158.609375 183.578125 160.359375 182.714844 C 163.503906 181.5625 165.707031 180.539062 165.980469 178.359375 C 166.003906 178.042969 165.960938 177.738281 165.859375 177.441406 C 165.757812 177.144531 165.601562 176.882812 165.390625 176.648438 C 165.179688 176.414062 164.933594 176.230469 164.652344 176.097656 C 164.367188 175.964844 164.066406 175.890625 163.753906 175.878906 C 163.152344 175.9375 162.601562 176.136719 162.101562 176.476562 C 161.601562 176.820312 161.21875 177.261719 160.945312 177.800781 C 161.039062 177.203125 160.980469 176.621094 160.773438 176.054688 C 160.5625 175.484375 160.230469 175.003906 159.773438 174.609375 Z M 159.773438 174.609375 " fill-opacity="1" fill-rule="nonzero"/><path fill="#ea7b1f" d="M 143.210938 186.535156 C 140.140625 187.148438 140.492188 190.722656 143.777344 191.976562 C 143.8125 191.945312 147.890625 194.273438 148.722656 192.507812 C 149.355469 191.558594 149.886719 190.550781 150.3125 189.492188 C 151.964844 186.34375 149.8125 183.511719 147.117188 185.046875 C 146.679688 185.46875 146.375 185.964844 146.195312 186.546875 C 146.019531 187.125 145.992188 187.707031 146.117188 188.300781 C 145.820312 187.773438 145.410156 187.355469 144.894531 187.042969 C 144.375 186.726562 143.816406 186.558594 143.210938 186.535156 Z M 143.210938 186.535156 " fill-opacity="1" fill-rule="nonzero"/><path fill="#ea7b1f" d="M 160.320312 199.960938 C 160.667969 201.882812 165.207031 200.6875 165.234375 200.726562 C 168.734375 200.367188 169.996094 197.003906 167.1875 195.617188 C 166.597656 195.484375 166.011719 195.5 165.429688 195.671875 C 164.851562 195.839844 164.347656 196.140625 163.921875 196.570312 C 164.195312 196.03125 164.320312 195.460938 164.300781 194.855469 C 164.277344 194.25 164.113281 193.6875 163.800781 193.171875 C 163.601562 192.925781 163.367188 192.730469 163.089844 192.578125 C 162.816406 192.429688 162.519531 192.339844 162.207031 192.3125 C 161.894531 192.28125 161.589844 192.3125 161.289062 192.40625 C 160.992188 192.5 160.722656 192.648438 160.480469 192.851562 C 158.890625 194.378906 159.378906 196.742188 160.320312 199.960938 Z M 160.320312 199.960938 " fill-opacity="1" fill-rule="nonzero"/><g clip-path="url(#520c5248ac)"><path fill="#ea7b1f" d="M 254.957031 154.726562 C 252.695312 154.476562 250.457031 154.621094 248.246094 155.164062 C 246.03125 155.707031 243.980469 156.613281 242.089844 157.886719 L 232.445312 165.726562 L 224.183594 162.613281 C 224.261719 161.941406 224.242188 161.273438 224.125 160.609375 C 224.007812 159.945312 223.796875 159.308594 223.496094 158.707031 C 223.191406 158.101562 222.808594 157.554688 222.34375 157.0625 C 221.882812 156.574219 221.359375 156.15625 220.773438 155.820312 C 220.191406 155.480469 219.570312 155.234375 218.914062 155.074219 C 218.257812 154.917969 217.589844 154.859375 216.917969 154.894531 C 216.242188 154.933594 215.585938 155.066406 214.953125 155.296875 C 214.316406 155.523438 213.726562 155.839844 213.183594 156.242188 L 211.214844 157.722656 C 210.09375 157.085938 208.90625 156.605469 207.65625 156.285156 C 206.40625 155.964844 205.136719 155.808594 203.84375 155.824219 C 202.554688 155.839844 201.289062 156.023438 200.046875 156.375 C 198.804688 156.726562 197.628906 157.234375 196.519531 157.898438 L 193.378906 159.914062 C 193.203125 160.027344 193.046875 160.160156 192.910156 160.3125 C 192.769531 160.460938 192.648438 160.625 192.546875 160.804688 C 192.445312 160.984375 192.367188 161.175781 192.3125 161.371094 C 192.257812 161.570312 192.226562 161.773438 192.21875 161.976562 C 192.210938 162.183594 192.226562 162.386719 192.269531 162.589844 C 192.3125 162.789062 192.375 162.984375 192.464844 163.171875 C 192.550781 163.355469 192.660156 163.527344 192.789062 163.6875 C 192.921875 163.847656 193.066406 163.992188 193.230469 164.117188 L 200.261719 169.355469 C 200.53125 169.550781 200.832031 169.6875 201.15625 169.765625 C 201.480469 169.839844 201.808594 169.855469 202.140625 169.804688 C 202.472656 169.75 202.78125 169.640625 203.066406 169.46875 C 203.355469 169.292969 203.597656 169.074219 203.796875 168.804688 C 203.996094 168.535156 204.140625 168.242188 204.222656 167.917969 C 204.308594 167.59375 204.328125 167.265625 204.28125 166.933594 C 204.234375 166.601562 204.128906 166.289062 203.960938 166 C 203.796875 165.710938 203.578125 165.460938 203.316406 165.257812 L 199.242188 162.222656 C 200.324219 161.507812 201.503906 161.082031 202.789062 160.941406 C 204.078125 160.796875 205.324219 160.957031 206.53125 161.414062 L 210.722656 163 C 212.652344 163.84375 214.644531 161.332031 216.28125 160.308594 C 216.449219 160.1875 216.636719 160.097656 216.835938 160.042969 C 217.039062 159.984375 217.246094 159.964844 217.453125 159.980469 C 217.660156 159.996094 217.863281 160.042969 218.054688 160.128906 C 218.246094 160.214844 218.417969 160.328125 218.566406 160.472656 C 218.71875 160.617188 218.839844 160.785156 218.933594 160.972656 C 219.027344 161.160156 219.085938 161.359375 219.109375 161.566406 C 219.136719 161.773438 219.125 161.980469 219.074219 162.183594 C 219.027344 162.386719 218.949219 162.578125 218.832031 162.753906 C 218.730469 162.914062 218.648438 163.082031 218.585938 163.261719 C 218.519531 163.441406 218.476562 163.625 218.453125 163.8125 C 218.429688 164.003906 218.429688 164.191406 218.449219 164.378906 C 218.464844 164.570312 218.503906 164.753906 218.566406 164.933594 C 218.625 165.117188 218.703125 165.289062 218.800781 165.449219 C 218.898438 165.613281 219.011719 165.765625 219.144531 165.902344 C 219.277344 166.039062 219.421875 166.160156 219.578125 166.265625 C 219.738281 166.371094 219.90625 166.460938 220.082031 166.527344 L 232.019531 171.027344 C 232.441406 171.1875 232.878906 171.234375 233.328125 171.160156 C 233.777344 171.085938 234.179688 170.90625 234.53125 170.617188 L 245.195312 161.949219 C 246.496094 161.117188 247.894531 160.507812 249.390625 160.128906 C 250.890625 159.75 252.410156 159.621094 253.949219 159.738281 C 254.257812 159.808594 254.511719 159.964844 254.703125 160.214844 C 254.898438 160.464844 254.992188 160.746094 254.984375 161.0625 C 254.679688 162.582031 254.144531 164.015625 253.371094 165.355469 C 252.597656 166.699219 251.628906 167.882812 250.46875 168.90625 L 239.242188 176.820312 C 238.871094 177.082031 238.589844 177.417969 238.398438 177.832031 C 238.207031 178.242188 238.128906 178.671875 238.167969 179.125 L 239.238281 191.855469 C 239.257812 192.042969 239.296875 192.226562 239.351562 192.40625 C 239.410156 192.585938 239.488281 192.757812 239.585938 192.921875 C 239.679688 193.085938 239.792969 193.234375 239.921875 193.375 C 240.050781 193.511719 240.195312 193.632812 240.351562 193.742188 C 240.507812 193.847656 240.671875 193.9375 240.847656 194.007812 C 241.023438 194.078125 241.207031 194.125 241.390625 194.15625 C 241.578125 194.1875 241.765625 194.195312 241.957031 194.183594 C 242.144531 194.175781 242.332031 194.140625 242.511719 194.089844 C 242.714844 194.019531 242.921875 193.988281 243.132812 193.996094 C 243.347656 194 243.554688 194.042969 243.75 194.121094 C 243.949219 194.199219 244.128906 194.308594 244.289062 194.449219 C 244.445312 194.59375 244.574219 194.757812 244.675781 194.945312 C 244.777344 195.132812 244.839844 195.332031 244.871094 195.542969 C 244.898438 195.753906 244.890625 195.964844 244.84375 196.171875 C 244.800781 196.382812 244.71875 196.574219 244.605469 196.753906 C 244.492188 196.933594 244.347656 197.089844 244.179688 197.21875 C 242.785156 198.484375 239.824219 199.707031 240.109375 201.800781 L 240.492188 206.265625 C 240.597656 207.546875 240.40625 208.785156 239.929688 209.980469 C 239.453125 211.175781 238.734375 212.199219 237.773438 213.054688 C 237.714844 213.207031 228.359375 188.546875 228.328125 188.574219 C 228.253906 188.390625 228.160156 188.214844 228.046875 188.054688 C 227.9375 187.890625 227.804688 187.742188 227.660156 187.609375 C 227.511719 187.476562 227.351562 187.363281 227.179688 187.265625 C 227.003906 187.171875 226.824219 187.097656 226.632812 187.042969 C 226.441406 186.988281 226.246094 186.957031 226.050781 186.949219 C 225.851562 186.941406 225.65625 186.953125 225.460938 186.988281 C 225.265625 187.027344 225.078125 187.085938 224.894531 187.164062 C 224.714844 187.246094 224.542969 187.34375 224.386719 187.464844 L 211.785156 197.125 C 211.464844 197.371094 211.214844 197.675781 211.039062 198.042969 C 210.863281 198.40625 210.777344 198.789062 210.785156 199.195312 L 210.910156 206.921875 C 210.929688 207.449219 210.871094 207.964844 210.734375 208.472656 C 210.601562 208.980469 210.398438 209.460938 210.128906 209.910156 C 209.855469 210.359375 209.527344 210.761719 209.136719 211.117188 C 208.75 211.472656 208.316406 211.765625 207.84375 211.996094 C 204.894531 195.96875 206.492188 198.570312 192.121094 191.351562 C 192.46875 190.945312 192.863281 190.601562 193.3125 190.3125 C 193.757812 190.027344 194.238281 189.8125 194.75 189.664062 C 195.257812 189.519531 195.78125 189.453125 196.3125 189.460938 C 196.84375 189.46875 197.363281 189.554688 197.867188 189.71875 L 205.304688 191.917969 C 205.691406 192.03125 206.085938 192.054688 206.480469 191.984375 C 206.878906 191.910156 207.238281 191.753906 207.5625 191.511719 L 220.265625 182.003906 C 220.421875 181.882812 220.5625 181.746094 220.691406 181.59375 C 220.816406 181.441406 220.921875 181.277344 221.011719 181.097656 C 221.097656 180.921875 221.164062 180.734375 221.210938 180.542969 C 221.253906 180.347656 221.277344 180.152344 221.277344 179.953125 C 221.277344 179.757812 221.253906 179.5625 221.207031 179.367188 C 221.164062 179.175781 221.097656 178.988281 221.007812 178.8125 C 220.921875 178.632812 220.8125 178.46875 220.6875 178.316406 C 220.558594 178.164062 220.417969 178.027344 220.257812 177.90625 L 211.570312 171.441406 C 211.296875 171.238281 210.996094 171.097656 210.667969 171.015625 C 210.339844 170.929688 210.007812 170.914062 209.671875 170.964844 C 209.339844 171.011719 209.023438 171.125 208.734375 171.296875 C 208.441406 171.472656 208.195312 171.695312 207.996094 171.964844 C 207.792969 172.238281 207.648438 172.539062 207.566406 172.867188 C 207.484375 173.195312 207.464844 173.527344 207.515625 173.863281 C 207.566406 174.199219 207.675781 174.511719 207.847656 174.800781 C 208.023438 175.09375 208.246094 175.339844 208.515625 175.542969 L 214.460938 179.964844 L 205.523438 186.652344 L 199.332031 184.820312 C 198.480469 184.5625 197.605469 184.410156 196.714844 184.371094 C 195.824219 184.328125 194.941406 184.398438 194.066406 184.578125 C 193.191406 184.753906 192.355469 185.039062 191.550781 185.425781 C 190.746094 185.816406 190.003906 186.296875 189.320312 186.871094 L 186.046875 190.347656 C 185.914062 190.492188 185.796875 190.652344 185.699219 190.824219 C 185.601562 190.996094 185.523438 191.179688 185.46875 191.367188 C 185.410156 191.558594 185.378906 191.753906 185.367188 191.953125 C 185.355469 192.148438 185.367188 192.347656 185.402344 192.542969 C 185.4375 192.738281 185.492188 192.925781 185.574219 193.109375 C 185.652344 193.292969 185.75 193.464844 185.867188 193.621094 C 185.984375 193.78125 186.121094 193.925781 186.273438 194.054688 C 186.421875 194.183594 186.585938 194.292969 186.765625 194.382812 C 187.257812 194.722656 200.570312 201.007812 200.226562 201.464844 C 200.582031 201.921875 200.820312 202.433594 200.9375 203.003906 L 203.46875 216.347656 C 203.507812 216.542969 203.566406 216.730469 203.652344 216.910156 C 203.734375 217.09375 203.835938 217.261719 203.957031 217.417969 C 204.082031 217.578125 204.21875 217.71875 204.375 217.84375 C 204.527344 217.96875 204.695312 218.074219 204.875 218.160156 C 205.054688 218.246094 205.242188 218.3125 205.4375 218.355469 C 205.632812 218.398438 205.828125 218.417969 206.027344 218.414062 C 206.226562 218.414062 206.421875 218.386719 206.617188 218.339844 C 206.808594 218.289062 206.996094 218.21875 207.171875 218.128906 L 211.339844 215.929688 C 211.460938 215.867188 211.578125 215.789062 211.691406 215.707031 C 212.371094 215.1875 212.980469 214.597656 213.523438 213.9375 C 214.066406 213.273438 214.527344 212.558594 214.902344 211.792969 C 215.277344 211.023438 215.5625 210.222656 215.75 209.390625 C 215.941406 208.554688 216.03125 207.710938 216.023438 206.855469 L 215.917969 200.398438 L 224.78125 193.601562 L 234.289062 218.34375 C 234.363281 218.535156 234.460938 218.714844 234.582031 218.882812 C 234.699219 219.050781 234.835938 219.203125 234.992188 219.335938 C 235.144531 219.472656 235.3125 219.585938 235.496094 219.683594 C 235.679688 219.777344 235.867188 219.847656 236.066406 219.898438 C 236.269531 219.945312 236.46875 219.972656 236.675781 219.972656 C 236.882812 219.972656 237.082031 219.949219 237.28125 219.902344 C 237.484375 219.851562 237.675781 219.78125 237.855469 219.6875 C 238.039062 219.59375 238.207031 219.480469 238.363281 219.347656 L 241.160156 216.886719 C 241.929688 216.199219 242.613281 215.429688 243.207031 214.585938 C 243.796875 213.738281 244.285156 212.839844 244.671875 211.878906 C 245.054688 210.921875 245.324219 209.929688 245.480469 208.910156 C 245.632812 207.890625 245.671875 206.863281 245.585938 205.835938 L 245.324219 202.765625 L 247.253906 201.304688 C 247.785156 200.890625 248.25 200.40625 248.644531 199.855469 C 249.035156 199.308594 249.34375 198.714844 249.5625 198.074219 C 249.785156 197.433594 249.90625 196.777344 249.9375 196.101562 C 249.964844 195.425781 249.894531 194.761719 249.730469 194.105469 C 249.5625 193.449219 249.308594 192.832031 248.960938 192.25 C 248.613281 191.671875 248.191406 191.152344 247.695312 190.695312 C 247.199219 190.238281 246.644531 189.859375 246.039062 189.5625 C 245.429688 189.265625 244.792969 189.0625 244.125 188.953125 L 243.382812 180.152344 L 253.730469 172.84375 C 255.414062 171.375 256.796875 169.660156 257.886719 167.710938 C 258.976562 165.761719 259.707031 163.683594 260.078125 161.480469 C 260.105469 161.097656 260.09375 160.710938 260.050781 160.328125 C 260.007812 159.945312 259.929688 159.566406 259.820312 159.199219 C 259.707031 158.828125 259.566406 158.472656 259.390625 158.128906 C 259.214844 157.785156 259.011719 157.457031 258.777344 157.148438 C 258.542969 156.84375 258.285156 156.558594 258 156.296875 C 257.71875 156.035156 257.414062 155.800781 257.085938 155.59375 C 256.761719 155.386719 256.417969 155.210938 256.0625 155.066406 C 255.703125 154.921875 255.335938 154.808594 254.957031 154.726562 Z M 254.957031 154.726562 " fill-opacity="1" fill-rule="nonzero"/></g><path fill="#ea7b1f" d="M 200.238281 222.328125 C 182.125 238.414062 174.402344 230.675781 158.726562 217.382812 C 170.648438 215.457031 182.277344 212.414062 193.613281 208.25 C 193.925781 208.128906 194.207031 207.957031 194.453125 207.726562 C 194.699219 207.5 194.890625 207.230469 195.03125 206.925781 C 195.171875 206.621094 195.25 206.300781 195.265625 205.964844 C 195.277344 205.628906 195.226562 205.304688 195.113281 204.988281 C 195 204.671875 194.828125 204.390625 194.605469 204.140625 C 194.378906 203.890625 194.113281 203.695312 193.8125 203.550781 C 193.507812 203.40625 193.1875 203.324219 192.851562 203.304688 C 192.515625 203.285156 192.191406 203.332031 191.875 203.441406 C 179.527344 208.019531 166.828125 211.175781 153.777344 212.914062 C 135.859375 196.222656 121.941406 180.519531 126.363281 162.023438 C 129.21875 148.925781 144.25 139.957031 157.085938 144.027344 C 175.652344 149.402344 179.871094 173.417969 179.910156 173.660156 C 179.964844 173.957031 180.066406 174.234375 180.21875 174.492188 C 180.371094 174.75 180.5625 174.976562 180.792969 175.167969 C 181.023438 175.359375 181.277344 175.507812 181.558594 175.609375 C 181.839844 175.710938 182.132812 175.761719 182.433594 175.761719 C 182.730469 175.761719 183.023438 175.710938 183.304688 175.609375 C 183.585938 175.507812 183.84375 175.359375 184.074219 175.167969 C 184.304688 174.976562 184.492188 174.75 184.644531 174.492188 C 184.796875 174.234375 184.898438 173.957031 184.953125 173.660156 C 184.996094 173.417969 189.207031 149.402344 207.773438 144.027344 C 208.886719 143.722656 210.011719 143.492188 211.15625 143.34375 C 212.296875 143.191406 213.445312 143.121094 214.597656 143.132812 C 215.75 143.140625 216.898438 143.230469 218.035156 143.398438 C 219.175781 143.570312 220.300781 143.816406 221.40625 144.140625 C 222.511719 144.46875 223.589844 144.867188 224.636719 145.34375 C 225.6875 145.820312 226.699219 146.367188 227.671875 146.980469 C 228.648438 147.597656 229.574219 148.28125 230.453125 149.027344 C 231.332031 149.769531 232.152344 150.574219 232.921875 151.433594 C 233.148438 151.679688 233.414062 151.875 233.71875 152.015625 C 234.023438 152.15625 234.34375 152.234375 234.679688 152.25 C 235.011719 152.261719 235.339844 152.214844 235.652344 152.101562 C 235.96875 151.988281 236.253906 151.820312 236.503906 151.597656 C 236.75 151.371094 236.949219 151.109375 237.09375 150.808594 C 237.242188 150.503906 237.324219 150.1875 237.34375 149.851562 C 237.363281 149.515625 237.320312 149.191406 237.214844 148.875 C 237.105469 148.554688 236.941406 148.269531 236.722656 148.015625 C 235.792969 146.980469 234.800781 146.011719 233.738281 145.113281 C 232.675781 144.214844 231.558594 143.394531 230.378906 142.648438 C 229.203125 141.90625 227.980469 141.25 226.714844 140.675781 C 225.445312 140.105469 224.144531 139.621094 222.808594 139.230469 C 221.472656 138.839844 220.117188 138.542969 218.742188 138.339844 C 217.367188 138.136719 215.980469 138.03125 214.589844 138.023438 C 213.199219 138.011719 211.8125 138.101562 210.433594 138.285156 C 209.054688 138.46875 207.695312 138.746094 206.355469 139.121094 C 192.507812 143.125 185.636719 155.300781 182.433594 163.871094 C 179.226562 155.300781 172.355469 143.125 158.507812 139.121094 C 142.96875 134.261719 124.832031 144.945312 121.390625 160.832031 C 120.863281 163.21875 120.570312 165.636719 120.507812 168.082031 C 120.449219 170.527344 120.621094 172.953125 121.03125 175.367188 C 121.4375 177.777344 122.070312 180.125 122.933594 182.414062 C 123.792969 184.703125 124.867188 186.890625 126.148438 188.972656 C 118.550781 196.371094 115.546875 203.207031 117.578125 208.816406 C 119.910156 218.136719 139.527344 220.074219 151.996094 218.242188 C 157.652344 223.457031 163.636719 228.257812 169.953125 232.652344 C 182.28125 240.714844 193.382812 235.0625 203.429688 226.320312 C 203.6875 226.105469 203.894531 225.851562 204.050781 225.558594 C 204.207031 225.261719 204.304688 224.949219 204.339844 224.613281 C 204.375 224.28125 204.34375 223.953125 204.25 223.632812 C 204.152344 223.3125 204.003906 223.019531 203.792969 222.757812 C 203.585938 222.496094 203.332031 222.285156 203.042969 222.121094 C 202.75 221.957031 202.4375 221.855469 202.105469 221.816406 C 201.773438 221.777344 201.445312 221.800781 201.121094 221.890625 C 200.796875 221.976562 200.503906 222.125 200.238281 222.328125 Z M 144.433594 213.65625 C 124.273438 214.109375 114.65625 207.957031 128.914062 193.386719 C 131.984375 197.816406 135.449219 201.90625 139.3125 205.660156 C 139.570312 205.945312 142.433594 209.109375 146.964844 213.511719 C 146.121094 213.558594 145.253906 213.632812 144.433594 213.65625 Z M 144.433594 213.65625 " fill-opacity="1" fill-rule="nonzero"/></svg>